<?xml version="1.0" ?><!DOCTYPE svg  PUBLIC '-//W3C//DTD SVG 1.1//EN'  'http://www.w3.org/Graphics/SVG/1.1/DTD/svg11.dtd'><svg enable-background="new -120.97 294.826 512 512" height="512px" id="Layer_1" version="1.1" viewBox="-120.97 294.826 512 512" width="512px" xml:space="preserve" xmlns="http://www.w3.org/2000/svg" xmlns:xlink="http://www.w3.org/1999/xlink"><linearGradient gradientTransform="matrix(0 -1 1 0 4.882813e-004 82.6528)" gradientUnits="userSpaceOnUse" id="SVGID_1_" x1="-724.1736" x2="-212.1736" y1="135.0305" y2="135.0305"><stop offset="0" style="stop-color:#FFFFFF"/><stop offset="0.5" style="stop-color:#CCCCCC"/><stop offset="1" style="stop-color:#999999"/></linearGradient><path d="M391.031,550.821c0,141.163-114.836,256.006-255.998,256.006  c-141.161,0-256.003-114.843-256.003-256.006c0-141.157,114.843-255.994,256.003-255.994  C276.196,294.826,391.031,409.663,391.031,550.821z" fill="url(#SVGID_1_)"/><g><linearGradient gradientUnits="userSpaceOnUse" id="SVGID_2_" x1="135.0305" x2="135.0305" y1="797.5276" y2="304.1252"><stop offset="0" style="stop-color:#999999"/><stop offset="0.5" style="stop-color:#CCCCCC"/><stop offset="1" style="stop-color:#FFFFFF"/></linearGradient><path d="M135.033,797.528c-136.036,0-246.705-110.672-246.705-246.707   c0-136.029,110.669-246.695,246.705-246.695c136.027,0,246.699,110.666,246.699,246.695   C381.733,686.856,271.061,797.528,135.033,797.528z M135.033,322.747c-125.766,0-228.083,102.313-228.083,228.073   c0,125.766,102.316,228.085,228.083,228.085c125.758,0,228.078-102.319,228.078-228.085   C363.112,425.06,260.791,322.747,135.033,322.747z" fill="url(#SVGID_2_)"/></g><g><defs><path d="M-83.147,550.823c0,120.32,97.863,218.18,218.182,218.18c120.301,0,218.18-97.859,218.18-218.18    c0-120.303-97.879-218.163-218.18-218.163C14.717,332.66-83.147,430.521-83.147,550.823z" id="SVGID_27_"/></defs><clipPath id="SVGID_4_"><use overflow="visible" xlink:href="#SVGID_27_"/></clipPath><rect clip-path="url(#SVGID_4_)" fill="#005397" height="512" width="512.001" x="-120.97" y="294.826"/><g clip-path="url(#SVGID_4_)"><circle cx="135.029" cy="551.978" fill="#ED9B24" r="170.019"/><circle cx="135.029" cy="551.978" fill="#005397" r="164.595"/><path d="M17.141,551.978c0-65.104,52.784-117.886,117.888-117.886c65.106,0,117.888,52.781,117.888,117.886    c0,65.109-52.781,117.888-117.888,117.888C69.925,669.865,17.141,617.087,17.141,551.978z" fill="#ED9B24"/><circle cx="135.029" cy="551.978" fill="#F1EEED" r="114.394"/><circle cx="-0.643" cy="516.435" fill="#F1EEED" r="15.879"/><path d="M-2.967,571.25c2.292,0,4.053,0.736,5.075,0.736c1.024,0,7.021-0.736,7.021,3.848    c0,0.39-0.145,1.371-0.145,1.371s0.511-0.329,2.171-0.329c1.657,0,4.275,1.66,4.275,7.226c0,1.123,1.27,2.639,1.27,5.522    c0,3.297-2.312,3.93-3.684,3.93c0,0,1.063,1.128,1.063,2.682c0,1.556-1.492,4.053-5.768,5.565    c-1.02,0.362-4.422,3.173-5.813,3.173c-2.965,0-4.03-1.883-4.03-2.621c0,0-1.002,2.074-3.397,2.109    c-2.823,0.041-5.176-3.643-6.016-4.194c-0.84-0.554-4.85-3.276-4.85-5.689c0-1.986,1.556-3.297,1.556-3.297    s-3.393-0.597-3.152-4.048c0.185-2.641,1.966-4.852,2.313-5.914c0.349-1.068,1.371-6.346,5.196-6.346    c1.229,0,2.231,0.921,2.231,0.921C-7.652,575.115-7.364,571.25-2.967,571.25z" fill="#F1EEED"/><path d="M-1.196,582.134c0.951-2.242,1.655-3.843,1.71-3.843s0.493,1.712,1.07,4.105    c0.488,0.167,0.954,0.385,1.374,0.663c1.351-1.568,4.513-5.432,4.513-7.124c0-2.763-4.42-2.15-5.586-2.15    c-1.169,0-4.053-0.612-4.933-0.612c-2.231,0-2.783,1.188-2.783,2.436c0,1.182,2.168,4.981,3.292,6.874    C-2.111,582.316-1.661,582.199-1.196,582.134z" fill="#ED3543"/><path d="M13.893,585.681c-0.334-1.118-0.577-4.059-0.833-4.9c-0.645-2.136-1.94-2.322-3.134-1.964    c-1.169,0.352-4.341,3.722-5.766,5.283c0.44,0.498,0.797,1.064,1.06,1.688c2.52,0.22,4.351,0.392,4.379,0.422    c0.027,0.03-1.65,1.098-3.944,2.525c-0.03,0.25-0.066,0.501-0.122,0.741c2.009,0.88,6.355,2.641,7.914,2.176    C16.094,590.852,14.232,586.796,13.893,585.681z" fill="#ED3543"/><path d="M11.692,594.995c-0.703-0.996-4.918-2.947-6.848-3.805c-0.261,0.44-0.58,0.84-0.938,1.196    c0.602,2.694,1.022,4.714,0.966,4.77c-0.056,0.061-1.718-1.306-3.896-3.15c-0.253,0.059-0.511,0.102-0.774,0.124    c-0.2,2.15-0.516,6.922,0.435,8.268c1.594,2.257,4.85-0.791,5.801-1.465c0.954-0.675,3.666-1.836,4.384-2.342    C12.646,597.308,12.41,596.018,11.692,594.995z" fill="#ED3543"/><path d="M-6.933,596.195c0-0.116,0.739-1.985,1.751-4.468c-0.324-0.433-0.597-0.905-0.797-1.416    c-2.176,0.465-6.636,1.553-7.618,2.828c-1.688,2.186,2.188,4.401,3.112,5.11c0.923,0.713,2.836,2.96,3.532,3.496    c1.766,1.361,2.93,0.759,3.691-0.228c0.729-0.946,1.333-5.343,1.594-7.509c-0.301-0.065-0.589-0.164-0.873-0.273    C-5.041,595.234-6.933,596.322-6.933,596.195z" fill="#ED3543"/><path d="M-6.394,588.046c0.002-0.124,0.018-0.243,0.025-0.364c-1.92-1.68-3.307-2.922-3.307-2.988    c0-0.061,1.756,0.043,4.205,0.223c0.395-0.627,0.896-1.181,1.485-1.629c-1.093-1.826-3.686-5.93-5.265-6.461    c-2.616-0.884-3.446,3.501-3.817,4.604c-0.375,1.108-1.875,3.648-2.158,4.479c-0.711,2.115,0.238,3.021,1.422,3.418    c1.098,0.369,5.237-0.431,7.425-0.898C-6.387,588.302-6.397,588.175-6.394,588.046z" fill="#ED3543"/><circle cx="-0.352" cy="588.115" fill="#ED3543" r="3.634"/><path d="M274.957,571.25c-2.292,0-4.053,0.736-5.075,0.736c-1.024,0-7.021-0.736-7.021,3.848    c0,0.39,0.145,1.371,0.145,1.371s-0.511-0.329-2.171-0.329c-1.656,0-4.275,1.66-4.275,7.226c0,1.123-1.27,2.639-1.27,5.522    c0,3.297,2.313,3.93,3.684,3.93c0,0-1.063,1.128-1.063,2.682c0,1.556,1.492,4.053,5.768,5.565c1.02,0.362,4.423,3.173,5.813,3.173    c2.966,0,4.033-1.883,4.033-2.621c0,0,1.002,2.074,3.395,2.109c2.824,0.041,5.177-3.643,6.017-4.194    c0.84-0.554,4.85-3.276,4.85-5.689c0-1.986-1.556-3.297-1.556-3.297s3.39-0.597,3.152-4.048c-0.185-2.641-1.963-4.852-2.313-5.914    c-0.349-1.068-1.371-6.346-5.196-6.346c-1.229,0-2.231,0.921-2.231,0.921C279.643,575.115,279.355,571.25,274.957,571.25z" fill="#F1EEED"/><path d="M273.187,582.134c-0.951-2.242-1.655-3.843-1.71-3.843c-0.056,0-0.494,1.712-1.07,4.105    c-0.488,0.167-0.954,0.385-1.374,0.663c-1.351-1.568-4.514-5.432-4.514-7.124c0-2.763,4.423-2.15,5.586-2.15    c1.169,0,4.054-0.612,4.934-0.612c2.231,0,2.783,1.188,2.783,2.436c0,1.182-2.171,4.981-3.294,6.874    C274.103,582.316,273.652,582.199,273.187,582.134z" fill="#ED3543"/><path d="M258.096,585.681c0.336-1.118,0.579-4.059,0.832-4.9c0.646-2.136,1.94-2.322,3.137-1.964    c1.169,0.352,4.342,3.722,5.766,5.283c-0.442,0.498-0.797,1.064-1.06,1.688c-2.52,0.22-4.352,0.392-4.379,0.422    c-0.028,0.03,1.649,1.098,3.943,2.525c0.028,0.25,0.066,0.501,0.122,0.741c-2.009,0.88-6.355,2.641-7.914,2.176    C255.898,590.852,257.759,586.796,258.096,585.681z" fill="#ED3543"/><path d="M260.297,594.995c0.705-0.996,4.92-2.947,6.851-3.805c0.261,0.44,0.579,0.84,0.938,1.196    c-0.602,2.694-1.024,4.714-0.967,4.77c0.056,0.061,1.719-1.306,3.896-3.15c0.253,0.059,0.511,0.102,0.776,0.124    c0.2,2.15,0.514,6.922-0.438,8.268c-1.594,2.257-4.85-0.791-5.804-1.465c-0.953-0.675-3.663-1.836-4.382-2.342    C259.343,597.308,259.58,596.018,260.297,594.995z" fill="#ED3543"/><path d="M278.924,596.195c0-0.116-0.738-1.985-1.75-4.468c0.323-0.433,0.597-0.905,0.794-1.416    c2.181,0.465,6.639,1.553,7.62,2.828c1.688,2.186-2.188,4.401-3.111,5.11c-0.927,0.713-2.837,2.96-3.532,3.496    c-1.766,1.361-2.93,0.759-3.691-0.228c-0.726-0.946-1.333-5.343-1.594-7.509c0.302-0.065,0.59-0.164,0.87-0.273    C277.031,595.234,278.924,596.322,278.924,596.195z" fill="#ED3543"/><path d="M278.388,588.046c-0.003-0.124-0.021-0.243-0.025-0.364c1.918-1.68,3.304-2.922,3.304-2.988    c0-0.061-1.755,0.043-4.204,0.223c-0.395-0.627-0.896-1.181-1.487-1.629c1.095-1.826,3.688-5.93,5.265-6.461    c2.618-0.884,3.448,3.501,3.817,4.604c0.374,1.108,1.877,3.648,2.158,4.479c0.711,2.115-0.235,3.021-1.42,3.418    c-1.098,0.369-5.234-0.431-7.422-0.898C278.378,588.302,278.388,588.175,278.388,588.046z" fill="#ED3543"/><circle cx="272.342" cy="588.115" fill="#ED3543" r="3.633"/><g><path d="M9.116,513.26c-0.668-0.022-1.417-0.038-2.229-0.041l-6.054,14.168c0.814,0.713,1.412,1.265,1.847,1.685     C6.303,524.472,8.957,520.05,9.116,513.26z" fill="#ED3543"/><path d="M11.76,509.901c-1.133-0.542-3.595-1.595-5.659-1.595c-1.786,0-2.945,0.365-3.608,0.704     c2.044,1.346,3.653,2.512,4.18,2.899c2.859,0.005,4.827,0.156,6.057,0.293C12.473,511.403,12.147,510.634,11.76,509.901z" fill="#ED3543"/><path d="M3.308,518.264c-5.285-3.235-13.611-7.994-16.196-8.652c-0.595,1.063-1.042,2.214-1.346,3.426     c1.943,2.732,12.002,7.838,16.328,8.065L3.308,518.264z" fill="#ED3543"/><path d="M-6.989,526.029c-0.756-0.321-1.502-0.663-2.221-1.024c0.132,0.951,0.453,2.254,1.136,3.309     c1.087,0.683,2.271,1.222,3.534,1.586C-5.623,528.614-6.675,527.01-6.989,526.029z" fill="#ED3543"/><path d="M1.557,522.36c-3.946-0.533-12.74-4.363-16.095-7.741c-0.076,0.595-0.129,1.199-0.129,1.816     c0,1.187,0.162,2.325,0.438,3.426c1.95,2.51,8.161,5.728,13.881,6.96L1.557,522.36z" fill="#ED3543"/><path d="M3.826,517.05l1.824-4.271c-3.269-2.378-10.922-7.52-14.229-7.903c-1.412,0.971-2.631,2.19-3.607,3.6     C-8.284,509.736,1.15,515.415,3.826,517.05z" fill="#ED3543"/><path d="M1.856,530.104c-0.577-0.559-1.369-1.28-2.115-1.93c-1.541-0.312-3.248-0.813-4.958-1.445     c0.759,1.271,2.103,2.935,2.904,3.623c0.549,0.065,1.103,0.108,1.67,0.108c0.814,0,1.614-0.086,2.388-0.22     C1.782,530.195,1.82,530.15,1.856,530.104z" fill="#ED3543"/><path d="M-10.589,524.27c-0.981-0.554-1.887-1.139-2.669-1.74c0.762,1.573,1.804,2.98,3.066,4.159     C-10.45,525.76-10.566,524.882-10.589,524.27z" fill="#ED3543"/><path d="M4.067,504.35c-1.971,0-4.528,0.344-6.082,1.882c1.121,0.635,2.244,1.32,3.299,1.994     c0.84-0.633,2.436-1.229,4.817-1.229c1.487,0,3.097,0.455,4.392,0.94c-0.931-1.225-2.052-2.294-3.332-3.152     C6.538,504.598,5.458,504.35,4.067,504.35z" fill="#ED3543"/><path d="M10.422,513.325c-0.174,7.051-2.98,11.774-6.587,16.392c5.548-1.87,9.547-7.104,9.547-13.282     c0-0.981-0.104-1.94-0.296-2.866C12.494,513.488,11.618,513.397,10.422,513.325z" fill="#ED3543"/><path d="M-3.194,505.589c1.399-1.578,3.714-2.443,6.76-2.535c-1.328-0.414-2.742-0.643-4.209-0.643     c-2.272,0-4.41,0.552-6.31,1.514C-5.825,504.289-4.532,504.881-3.194,505.589z" fill="#ED3543"/></g><circle cx="270.744" cy="516.435" fill="#F1EEED" r="15.879"/><g><path d="M260.988,513.26c0.663-0.022,1.411-0.038,2.227-0.041l6.054,14.168c-0.813,0.713-1.414,1.265-1.85,1.685     C263.798,524.472,261.142,520.05,260.988,513.26z" fill="#ED3543"/><path d="M258.341,509.901c1.131-0.542,3.595-1.595,5.659-1.595c1.789,0,2.945,0.365,3.605,0.704     c-2.039,1.346-3.653,2.512-4.177,2.899c-2.859,0.005-4.83,0.156-6.055,0.293C257.628,511.403,257.954,510.634,258.341,509.901z" fill="#ED3543"/><path d="M266.796,518.264c5.282-3.235,13.608-7.994,16.196-8.652c0.592,1.063,1.042,2.214,1.344,3.426     c-1.943,2.732-12,7.838-16.331,8.065L266.796,518.264z" fill="#ED3543"/><path d="M277.088,526.029c0.759-0.321,1.502-0.663,2.221-1.024c-0.129,0.951-0.45,2.254-1.134,3.309     c-1.087,0.683-2.271,1.222-3.531,1.586C275.722,528.614,276.779,527.01,277.088,526.029z" fill="#ED3543"/><path d="M268.544,522.36c3.946-0.533,12.738-4.363,16.093-7.741c0.076,0.595,0.132,1.199,0.132,1.816     c0,1.187-0.162,2.325-0.44,3.426c-1.948,2.51-8.162,5.728-13.879,6.96L268.544,522.36z" fill="#ED3543"/><path d="M266.275,517.05l-1.824-4.271c3.271-2.378,10.922-7.52,14.229-7.903c1.409,0.971,2.634,2.19,3.605,3.6     C278.388,509.736,268.951,515.415,266.275,517.05z" fill="#ED3543"/><path d="M268.243,530.104c0.576-0.559,1.371-1.28,2.114-1.93c1.544-0.312,3.249-0.813,4.959-1.445     c-0.759,1.271-2.1,2.935-2.904,3.623c-0.547,0.065-1.103,0.108-1.67,0.108c-0.814,0-1.608-0.086-2.388-0.22     C268.319,530.195,268.279,530.15,268.243,530.104z" fill="#ED3543"/><path d="M280.69,524.27c0.982-0.554,1.886-1.139,2.667-1.74c-0.759,1.573-1.802,2.98-3.066,4.159     C280.548,525.76,280.665,524.882,280.69,524.27z" fill="#ED3543"/><path d="M266.032,504.35c1.973,0,4.528,0.344,6.087,1.882c-1.124,0.635-2.247,1.32-3.305,1.994     c-0.84-0.633-2.434-1.229-4.814-1.229c-1.487,0-3.099,0.455-4.395,0.94c0.937-1.225,2.055-2.294,3.332-3.152     C263.563,504.598,264.641,504.35,266.032,504.35z" fill="#ED3543"/><path d="M259.677,513.325c0.177,7.051,2.98,11.774,6.588,16.392c-5.546-1.87-9.546-7.104-9.546-13.282     c0-0.981,0.104-1.94,0.297-2.866C257.608,513.488,258.483,513.397,259.677,513.325z" fill="#ED3543"/><path d="M273.293,505.589c-1.396-1.578-3.712-2.443-6.761-2.535c1.331-0.414,2.743-0.643,4.21-0.643     c2.272,0,4.412,0.552,6.31,1.514C275.926,504.289,274.634,504.881,273.293,505.589z" fill="#ED3543"/></g><path d="M217.261,552.145c0-7.205-6.343-11.42-13.136-11.42c-7.571,0-12.812,6.507-13.221,6.507    c-0.41,0,1.72-6.017,11.46-13.179c7.099-5.219,14.119-10.106,14.119-17.722c0-8.759-5.689-14.445-13.259-14.445    c-12.482,0-14.693,9.904-14.693,11.581c0,2.047,0.738,2.904,0.738,2.904s-0.164-5.892,6.3-5.892c3.851,0,5.363,3.969,5.363,5.852    c0,1.885-0.04,3.724-7.246,10.19c-7.199,6.469-13.218,11.051-13.218,18.992s3.848,12.441,9.373,18.703s5.403,9.209,5.403,12.933    c0,3.725-3.111,7.081-7.574,7.081c-5.389,0-13.3-2.157-16.029-10.068c-2.728-7.911-3.491-12.387-4.038-18.443    c-0.395-4.399-2.4-9.277-4.311-11.296l0.602-6.55c0,0,0.982,0.764,3.112,0.764c4.144,0,9.219-3.981,9.219-8.783    c0-4.369-2.839-6.823-2.839-6.823s-0.053,3.547-4.093,3.547c-4.038,0-7.256-3.436-7.256-8.948s2.348-7.967,5.51-7.967    c5.131,0,8.132,4.149,8.132,4.149c-0.491-3.332-1.175-6.36-0.162-10.479c0,0-1.199,0.41-3.112,0.41    c-2.755,0-3.739-0.875-3.739-2.758c0-1.882,2.379-5.338,5.622-5.32c4.584,0.028,4.185,2.128,4.185,2.128s3.701-5.43,4.11-5.672    c0.407-0.248,0.19-2.839,0.19-2.839l1.831,0.845l2.069-3.356c-0.87-2.265-3.924-3.203-4.746-3.846    c-1.255-0.984-2.264-2.973-2.264-3.438c-2.866-0.521-24.064-2.13-24.064-13.861c-1.473,0.655-9.004,4.42-9.004,8.84    c0,1.311,0.643,2.047,0.643,2.047c-2.416,0-9.333-0.572-12.32,6.385c2.292-1.021,6.507,0.941,6.507,5.361s-4.504,7.981-8.39,7.981    c-4.339,0-5.075-3.192-5.075-3.192c-1.515,1.27-3.438,7.938,3.644,11.293c0,2.662-5.649,12.032-6.467,12.032    c-7.286,0-15.554-2.216-18.048-3.678c-5.649-3.319-10.231-8.162-12.116-8.162v-3.382c5.075-3.398,11.908-8.799,11.908-16.576    c0-6.793-5.852-15.02-15.837-15.02c-10.396,0-15.756,9.658-15.756,14.936c0,8.091,8.253,14.284,11.417,14.284    c-0.928,1.475-4.037,1.913-4.037,1.913c0.816,0.789,3.159,1.73,4.814,1.73v2.046c-3.041,0-6.179,2.497-6.179,5.361    c0,2.236,1.746,3.192,1.746,3.547c0,0.9-2.155,1.503-2.155,3.684c0,1.829,2.019,2.839,2.019,3.466s-0.729,5.409,4.569,5.409    v33.309c-0.531,0-3.725,2.317-4.269,4.255c-1.174,0.081-4.475-2.135-4.475,5.151c2.074-1.883,3.929-1.64,3.929-1.64    c-0.873,1.201-1.528,2.074-1.528,4.04s0.817,3.464,0.817,3.464c1.229-2.156,3.276-0.102,3.739-0.102    c0,4.422,0.872,5.51,1.786,6.411v25.061h-2.292v6.796h3.807c-1.403,0.692-3.245,2.332-3.245,5.034    c0,3.436,3.226,5.257,5.742,5.257c2.518,0,5.384-2.271,5.384-5.277c0-3.011-2.416-4.563-3.38-5.014h3.663v-6.796h-2.168v-22.263    c0,0,0.757,0.655,2.396,0.655c-0.807-5.771,5.66-9.535,10.408-9.535c4.802,0,6.659,3.382,6.659,3.382    c14.188-5.158,20.462-14.38,21.063-14.38c0.598,0,5.723,9.379,5.723,9.379c-4.893,1.371-26.01,15.574-26.01,26.543    c0,5.361,6.221,7.855,6.221,7.855c0,15.473-6.674,18.008-9.659,18.008c-2.987,0-4.829-0.614-8.429-0.614    c-3.604,0-10.601,2.006-10.601,7.817c0,2.742,0.981,4.301,0.981,4.301s-0.43,1.103-0.43,2.146c0,3.213,2.168,5.629,3.744,6.079    c-0.981-4.83,3.273-6.282,7.347-6.282c0,1.799,0.652,5.895,4.315,7.569c-0.756-6.77,5.69-7.488,7.246-7.488    c0,1.604,0.776,4.523,5.252,6.214c-0.956-3.082,1.032-5.64,4.817-6.317c5.484-0.979,6.957-3.397,8.591-10.312    c0.932-3.93,3.236-10.069,14.572-11.992c-8.308-2.047-11.01-4.624-11.01-7.981c0-6.259,11.42-9.78,13.998-9.78    c6.507,11.174,12.439,14.243,17.23,14.243c0.941,0.612,2.045,3.519,2.045,6.466c0,5.318-2.004,9.25-3.314,9.25    s-16.642-1.119-16.642,8.513c0,2.208,0.966,2.927,0.966,2.927c0,1.083,0.246,4.643,2.824,6.259    c0.718-3.905,2.967-5.031,9.229-5.031c0,1.697,0.574,5.095,3.378,6.097c0-1.738,0.104-6.16,6.731-6.16    c0,2.171,0.9,4.154,3.502,4.829c-0.474-1.861,1.594-4.829,4.538-4.829c2.252,0,3.891-1.225,3.891-4.913c0-3.679,0-9.697,0-12.766    c0-5.895,4.337-16.697,10.19-22.266c-2.987,1.313-5.155,1.677-6.795,1.677c-13.874,0-18.458-16.737-17.924-16.737    c0.531,0,6.752,7.448,19.685,7.448c11.706,0,15.918-6.629,15.918-12.523c0-12.726-11.784-18.827-11.784-24.429    c0-2.418,2.702-4.425,5.115-4.425c2.414,0,7.696,2.497,7.696,7.329c0,1.961-1.599,4.458-1.599,4.458    C214.154,561.925,217.261,554.722,217.261,552.145z M91.146,488.421c-2.125,0-1.336-1.725-1.336-3.848    c0-2.125-0.789-3.117,1.336-3.117s3.848,0.992,3.848,3.117C94.993,486.697,93.271,488.421,91.146,488.421z M106.189,553.207    c-1.814,1.389-6.958,5.813-11.195,5.813v-31.146c2.887,0,13.077,2.413,13.077,6.833c0,1.842-1.801,4.256-4.422,4.256    c1.107,2.661,4.382,3.767,7.531,3.767c7.981,0,10.765-5.893,11.215-5.893s3.273,3.765,3.273,4.625    C120.265,543.836,110.565,549.852,106.189,553.207z" fill="#C6CACD"/><path d="M181.349,496.954l-1.902,2.639c0,0,2.188,3.909,6.793,3.909c6.876,0,8.368-6.957,8.103-8.983    c0,0-1.771,4.358-7.433,4.358C182.965,498.877,181.349,496.954,181.349,496.954z" fill="#C6CACD"/><path d="M212.37,547.186c0-7.205-6.343-11.42-13.138-11.42c-7.572,0-12.812,6.507-13.221,6.507    c-0.408,0,1.72-6.016,11.46-13.178c7.099-5.217,14.122-10.107,14.122-17.723c0-8.758-5.689-14.445-13.262-14.445    c-12.482,0-14.693,9.904-14.693,11.582c0,2.047,0.738,2.904,0.738,2.904s-0.164-5.89,6.302-5.89c3.849,0,5.361,3.967,5.361,5.849    c0,1.883-0.041,3.725-7.243,10.193c-7.203,6.464-13.219,11.048-13.219,18.989s3.846,12.442,9.371,18.703    c5.524,6.262,5.403,9.209,5.403,12.934c0,3.724-3.111,7.078-7.572,7.078c-5.391,0-13.3-2.153-16.031-10.063    c-2.728-7.914-3.491-12.392-4.038-18.448c-0.395-4.397-2.398-9.274-4.311-11.294l0.602-6.547c0,0,0.981,0.762,3.112,0.762    c4.144,0,9.219-3.984,9.219-8.786c0-4.364-2.836-6.821-2.836-6.821s-0.054,3.547-4.094,3.547c-4.037,0-7.258-3.436-7.258-8.95    c0-5.511,2.348-7.965,5.513-7.965c5.128,0,8.131,4.149,8.131,4.149c-0.491-3.329-1.172-6.36-0.165-10.479    c0,0-1.198,0.409-3.106,0.409c-2.758,0-3.741-0.875-3.741-2.757c0-1.883,2.375-5.338,5.624-5.318    c4.584,0.025,3.243,3.491,3.243,3.491s4.64-6.795,5.05-7.038c0.409-0.248,0.189-2.838,0.189-2.838l1.829,0.845l2.072-3.354    c-0.873-2.268-3.924-3.206-4.746-3.851c-1.258-0.981-2.265-2.976-2.265-3.436c-2.863-0.519-24.064-2.128-24.064-13.861    c-1.473,0.655-9.006,4.42-9.006,8.839c0,1.311,0.643,2.047,0.643,2.047c-2.414,0-9.331-0.571-12.321,6.386    c2.292-1.022,6.507,0.941,6.507,5.363c0,4.417-4.498,7.979-8.389,7.979c-4.336,0-5.075-3.193-5.075-3.193    c-1.513,1.268-3.436,7.939,3.644,11.296c0,2.659-5.647,12.03-6.467,12.03c-7.286,0-15.554-2.217-18.048-3.684    c-5.647-3.314-10.231-8.156-12.113-8.156v-3.383c5.075-3.397,11.91-8.799,11.91-16.573c0-6.795-5.854-15.022-15.842-15.022    c-10.393,0-15.756,9.659-15.756,14.939c0,8.088,8.252,14.28,11.42,14.28c-0.926,1.478-4.038,1.913-4.038,1.913    c0.819,0.789,3.157,1.73,4.814,1.73v2.049c-3.043,0-6.181,2.495-6.181,5.358c0,2.236,1.746,3.193,1.746,3.547    c0,0.901-2.156,1.503-2.156,3.684c0,1.829,2.021,2.839,2.021,3.466c0,0.628-0.73,5.409,4.569,5.409v33.309    c-0.534,0-3.722,2.317-4.271,4.255c-1.171,0.084-4.473,0.603-4.473,7.886c2.072-1.882,3.929-1.637,3.929-1.637    c-0.875,1.199-1.528,2.075-1.528,4.038c0,1.966,0.817,3.466,0.817,3.466c1.228-2.155,3.273-2.839,3.739-2.839    c0,4.42,0.873,5.513,1.786,6.411v25.062h-2.289v6.795h3.805c-1.407,0.693-3.249,2.332-3.249,5.034    c0,3.436,3.229,5.258,5.743,5.258c2.52,0,5.384-2.272,5.384-5.28c0-3.006-2.413-4.562-3.378-5.012h3.664v-6.795h-2.168v-22.264    c0,0,0.756,0.655,2.393,0.655c-0.805-5.771,5.662-9.535,10.408-9.535c4.802,0,6.658,3.383,6.658,3.383    c14.188-5.156,20.462-14.38,21.064-14.38c0.602,0,5.723,9.378,5.723,9.378c-4.893,1.371-26.008,15.574-26.008,26.544    c0,5.36,6.219,7.857,6.219,7.857c0,15.468-6.671,18.008-9.659,18.008c-2.985,0-4.827-0.614-8.43-0.614s-10.6,2.003-10.6,7.814    c0,2.745,0.981,4.301,0.981,4.301s-0.431,1.104-0.431,2.146c0,3.216,2.171,5.632,3.747,6.079    c-0.984-4.829,3.273-6.281,7.345-6.281c0,1.801,0.655,5.892,4.318,7.569c-0.757-6.772,5.689-7.488,7.243-7.488    c0,1.604,0.779,4.521,5.252,6.213c-0.951-3.081,1.032-5.637,4.816-6.314c5.485-0.986,6.957-3.4,8.595-10.314    c0.931-3.929,3.235-10.069,14.569-11.991c-8.309-2.047-11.01-4.622-11.01-7.979c0-6.265,11.42-9.783,14-9.783    c6.504,11.175,12.439,14.243,17.229,14.243c0.941,0.612,2.044,3.52,2.044,6.467c0,5.32-2.003,9.249-3.313,9.249    c-1.309,0-16.642-1.118-16.642,8.516c0,2.206,0.966,2.922,0.966,2.922c0,1.085,0.248,4.645,2.823,6.262    c0.719-3.906,2.971-5.032,9.229-5.032c0,1.697,0.574,5.096,3.38,6.097c0-1.737,0.102-6.16,6.729-6.16    c0,2.171,0.9,4.154,3.501,4.832c-0.471-1.864,1.594-4.832,4.541-4.832c2.252,0,3.889-1.225,3.889-4.91c0-3.681,0-9.697,0-12.769    c0-5.895,4.337-16.697,10.19-22.263c-2.985,1.306-5.155,1.675-6.795,1.675c-13.871,0-18.456-16.735-17.925-16.735    s6.753,7.445,19.686,7.445c11.706,0,15.921-6.628,15.921-12.522c0-12.729-11.787-18.828-11.787-24.429    c0-2.419,2.702-4.423,5.115-4.423c2.416,0,7.696,2.495,7.696,7.324c0,1.966-1.597,4.46-1.597,4.46    C209.261,556.966,212.37,549.764,212.37,547.186z M86.255,483.463c-2.122,0-3.848-1.723-3.848-3.846    c0-2.128,1.726-3.851,3.848-3.851c2.123,0,3.849,1.723,3.849,3.851C90.104,481.74,88.378,483.463,86.255,483.463z     M101.295,548.248c-1.811,1.392-6.957,5.813-11.191,5.813v-31.147c2.884,0,13.074,2.416,13.074,6.836    c0,1.841-1.802,4.255-4.42,4.255c1.105,2.661,4.379,3.767,7.531,3.767c7.979,0,10.763-5.892,11.213-5.892s3.273,3.765,3.273,4.624    C115.377,538.877,105.675,544.894,101.295,548.248z" fill="#005397"/><path d="M136.531,483.301c0,4.266-4.191,7.721-7.981,7.954v0.01c7.334,0,10.588-4.842,10.588-9.262    c0-3.494-1.989-6.413-4.746-6.413c-2.755,0-4.367,2.348-4.367,2.348C132.317,476.915,136.531,478.879,136.531,483.301z" fill="#627EB7"/><path d="M93.929,479.82c0-2.319-1.964-5.674-5.812-5.674c-4.528,0-5.812,3.817-5.812,5.472    c0,3.162,2.236,6.178,6.085,6.178v3.603C92.375,485.714,93.929,482.137,93.929,479.82z M86.255,483.463    c-2.122,0-3.848-1.723-3.848-3.846c0-2.128,1.726-3.851,3.848-3.851c2.123,0,3.849,1.723,3.849,3.851    C90.104,481.74,88.378,483.463,86.255,483.463z" fill="#627EB7"/><path d="M70.396,479.534c0,8.088,8.252,14.28,11.42,14.28c-3.712-1.882-7.777-7.609-7.777-14.157    c0-5.556,2.391-11.101,8.557-14.658C74.539,466.877,70.396,474.894,70.396,479.534z" fill="#627EB7"/><path d="M82.592,499.507c0.671,0,1.869,1.172,3.727,1.533v-3.765c0,0-2.5,0.183-3.727,0.183V499.507z" fill="#627EB7"/><path d="M90.083,499.573v2.967c0.956,0.137,5.394,1.733,9.755,3.687C95.289,503.125,91.695,499.573,90.083,499.573    z" fill="#627EB7"/><path d="M80.669,503.011c1.637,0,7.722,3.793,7.722,4.202c0,0.41-4.668,0.463-6.193,0.463    c-1.528,0-3.494-0.354-3.494-2.332C78.703,504.406,79.579,503.011,80.669,503.011z" fill="#627EB7"/><path d="M80.738,509.546c0.997,0,7.256,2.103,7.256,2.591c0,0.49-5.263,1.487-6.684,1.487    c-1.417,0-2.439-0.805-2.439-2.039C78.87,510.912,79.412,509.546,80.738,509.546z" fill="#627EB7"/><path d="M81.692,515.481c0.589,0,5.224,0.86,5.224,1.283s-3.832,1.689-5.224,1.689    c-0.585,0-1.444-0.64-1.444-1.484C80.247,516.422,80.669,515.481,81.692,515.481z" fill="#627EB7"/><path d="M102.442,554.062c1.923-0.94,26.767-13.861,28.922-16.545c0,0-7.886,0-10.588-1.013    c-5.398,2.373-15.101,8.39-19.48,11.744c-1.811,1.392-6.957,5.813-11.191,5.813c-1.557,0-2.171-0.533-3.924-0.533    c0,0,0-25.879,0-28.608c0-2.728-2.756-3.949-3.588-3.949v33.309c-0.534,0-3.722,2.317-4.271,4.255    c-1.11,0.079-4.121,0.55-4.445,6.766c1.18-2.272,3.489-4.911,5.455-4.911c0-2.863,6.739-3.134,11.159-3.134    S100.516,555.003,102.442,554.062z" fill="#627EB7"/><path d="M77.778,564.783c-0.875,1.199-1.528,2.075-1.528,4.038c0,1.123,0.266,2.079,0.496,2.707    c0.511-2.343,4.129-6.459,4.129-6.459S78.357,564.783,77.778,564.783z" fill="#627EB7"/><path d="M84.31,570.084c0,0-0.88-0.636-3.504-0.636c0,3.967,0.703,5.252,1.511,6.128    C82.422,572.373,84.31,570.084,84.31,570.084z" fill="#627EB7"/><path d="M86.18,601.728c0-0.706,0-28.978,0-28.978c-2.346,0-3.588,3.109-3.588,3.109v25.062h-2.289v3.261    C85.608,604.182,86.18,602.429,86.18,601.728z" fill="#627EB7"/><path d="M87.71,611.769c0-2.279-1.969-3.37-3.276-3.37c-0.64,0-1.485,0.319-2.186,0.734    c-0.782,0.87-1.39,2.069-1.39,3.617c0,0.152,0.016,0.294,0.028,0.445c0.622,1.113,1.683,2.31,3.109,2.31    C86.384,615.505,87.71,613.785,87.71,611.769z" fill="#627EB7"/><path d="M90.104,578.657c0,0,0.756,0.655,2.393,0.655c-0.349-0.533-2.13-2.292-2.13-4.174    c0-0.777,0.349-1.392,0.349-1.392s-1.123-0.903-3.374-0.903C87.341,575.874,87.912,577.41,90.104,578.657z" fill="#627EB7"/><path d="M130.845,579.462c7.913-3.927,20.573-7.641,20.573-14.841c0-6.003-5.73-7.205-7.504-7.205    c0,0,1.664,2.184,1.664,4.504c0,6.41-7.559,6.238-9.229,6.238c-4.893,1.371-26.008,15.574-26.008,26.544    c0,5.36,6.219,7.857,6.219,7.857c0,15.468-6.671,18.008-9.659,18.008c-2.985,0-4.827-0.614-8.43-0.614s-10.6,2.003-10.6,7.814    c0,2.745,0.981,4.301,0.981,4.301c1.25-10.316,5.279-8.799,17.639-8.799c5.895,0,15.786-6.431,15.786-21.489    c0,0-6.168-2.236-6.168-8.293C116.111,586.282,122.931,583.391,130.845,579.462z" fill="#627EB7"/><path d="M88.423,634.214c0,3.216,2.171,5.632,3.747,6.079c-0.043-0.207-0.063-0.397-0.086-0.589    c-0.544-0.585-1.389-1.797-1.389-3.737c0-2.071,2.034-3.898,2.034-3.898h-3.876C88.854,632.069,88.423,633.172,88.423,634.214z" fill="#627EB7"/><path d="M103.643,634.012h-4.128c0,1.801,0.655,5.892,4.318,7.569c0,0-1.42-1.735-1.42-4.164    C102.413,634.986,103.643,634.012,103.643,634.012z" fill="#627EB7"/><path d="M116.184,639.735c-2.801-2.788-2.335-5.642-2.335-5.642h-2.772c0,1.604,0.779,4.521,5.252,6.213    C116.27,640.114,116.222,639.921,116.184,639.735z" fill="#627EB7"/><path d="M166.081,625.848c0.574,0,5.935-7.736,5.935-14.615c0-5.196-3.436-8.47-3.436-8.47    c-9.702,0-13.507-4.051-13.507-8.531c0,0-2.907-0.552-4.483-0.552c-1.573,0-3.291,0.243-3.291,0.243    c6.504,11.175,12.439,14.243,17.229,14.243c0.941,0.612,2.044,3.52,2.044,6.467c0,5.32-2.003,9.249-3.313,9.249    c-1.309,0-16.642-1.118-16.642,8.516c0,2.206,0.966,2.922,0.966,2.922C147.582,628.671,151.418,625.848,166.081,625.848z" fill="#627EB7"/><path d="M149.287,637.796c0-1.472,0.795-2.477,0.795-2.477h-2.5c0,1.029,0.228,4.299,2.464,6.009    C149.707,640.643,149.287,639.463,149.287,637.796z" fill="#627EB7"/><path d="M161.649,639.16c0-1.854,1.037-2.611,1.037-2.611h-3.051c0,1.697,0.574,5.096,3.38,6.097    c0-0.007,0-0.018,0-0.03C162.646,642.127,161.649,640.67,161.649,639.16z" fill="#627EB7"/><path d="M180.613,542.08c0-8.126,6.165-12.93,12.169-18.17c6.001-5.236,8.951-8.349,8.951-12.112    c0-6.467-5.485-8.321-8.404-8.321c-3.082,0-8.258,1.654-8.617,5.933c0.557-1.708,2.034-3.886,5.968-3.886    c3.849,0,5.361,3.967,5.361,5.849c0,1.883-0.041,3.725-7.243,10.193c-7.203,6.464-13.219,11.048-13.219,18.989    s3.846,12.442,9.371,18.703c5.524,6.262,5.403,9.209,5.403,12.934c0,3.724-3.111,7.078-7.572,7.078    c-4.794,0-11.574-1.715-14.938-7.66c1.274,3.891,5.384,11.837,17.354,11.837c9.331,0,10.914-6.849,10.914-10.149    c0-6.604-3.876-11.569-7.312-15.498C185.359,553.869,180.613,548.633,180.613,542.08z" fill="#627EB7"/><path d="M199.409,544.155c-5.565,0-8.045,4.696-8.257,6.725h0.007c0.65-1.897,2.887-3.324,4.921-3.324    c2.416,0,7.696,2.495,7.696,7.324c0,1.966-1.597,4.46-1.597,4.46c0.582-0.192,1.126-0.43,1.654-0.688    c2.148-1.953,3.297-4.043,3.297-6.31C207.131,549.422,204.976,544.155,199.409,544.155z" fill="#627EB7"/><path d="M173.22,641.308c-0.893-0.916-1.366-2.844-1.366-3.653c0-0.614,0.367-1.169,0.367-1.169h-2.477    C169.744,638.649,170.64,640.627,173.22,641.308z" fill="#627EB7"/><g><path d="M163.648,479.41c-0.081,1.384-0.097,2.206,1.389,2.423l1.799-2.423H163.648z" fill="#F1EEED"/><path d="M161.234,479.41h-4.439c-1.038,2.484,4.525,4.966,6.357,4.966l0.786-1.065     C161.264,482.886,161.084,480.826,161.234,479.41z" fill="#F1EEED"/></g><path d="M103.178,529.75c0,1.841-1.802,4.255-4.42,4.255c0,0,1.004,0.433,1.862,0.433    c1.085,0,5.014-0.35,5.014-3.828c0-3.855-4.688-5.401-7.956-5.95C100.605,525.816,103.178,527.529,103.178,529.75z" fill="#627EB7"/><path d="M176.458,491.996l-1.904,2.639c0,0,2.19,3.908,6.795,3.908c6.874,0,8.369-6.957,8.104-8.983    c0,0-1.773,4.359-7.436,4.359C178.073,493.919,176.458,491.996,176.458,491.996z" fill="#ED3543"/><path d="M118.954,524.513c0,1.063-0.347,2.252-0.733,3.334c5.809,0,7.139-4.584,7.139-8.272    c0-3.494-1.007-4.053-1.007-4.339c0-0.574,4.281-5.021,8.293-17.271c-1.007,0-10.259-2.074-9.424-9.451l0,0    c-0.111-0.256-0.154-0.426-0.154-0.426c-1.513,1.268-3.436,7.939,3.644,11.296c0,2.659-5.647,12.03-6.467,12.03    c-5.272,0-11.053-1.164-14.795-2.358C111.906,512.87,118.954,518.825,118.954,524.513z" fill="#627EB7"/><path d="M141.703,469.505c0,1.311,0.643,2.047,0.643,2.047c-1.412,0-4.362-0.192-7.165,1.032    c3.491-0.911,11.9-0.678,11.9-0.678s-1.381-1.662-1.381-3.628c0-1.963,3.299-6.755,5.009-7.612    C149.237,461.322,141.703,465.086,141.703,469.505z" fill="#627EB7"/><path d="M49.046,429.726c0,0-2.634-1.228-6.153-1.228c-4.329,0-16.33,2.988-16.33,17.107    c0,10.846,9.699,17.147,17.517,17.147s16.535-6.671,16.535-15.837c0-4.584-1.391-6.672-1.391-6.672l-6.548,1.678    c0,0,1.227,3.233,1.227,5.32s-2.249,7.202-6.876,7.202c-4.624,0-11.868-7.202-11.868-12.811c0-2.824,2.722-6.548,6.856-6.548    s5.277,0.86,5.277,0.86L49.046,429.726z" fill="#ED9B24"/><polygon fill="#ED9B24" points="56.031,416.057 64.829,411.842 70.355,422.892 76.371,420.026 71.296,409.059 80.259,404.884     94.46,434.353 85.418,438.853 79.483,426.492 73.426,429.521 79.073,441.677 70.11,445.932   "/><polygon fill="#ED9B24" points="94.46,400.478 115.185,396.166 116.657,402.825 105.561,404.884 106.836,410.736 117.257,408.664     118.403,415.429 108.199,417.336 109.454,424.38 120.477,421.977 122.005,428.417 100.886,432.673   "/><polygon fill="#ED9B24" points="129.534,395.129 139.684,395.129 139.249,421.486 150.38,421.486 150.38,428.635 128.937,428.362       "/><path d="M182.576,410.192l-6.656,2.237c-0.165-3.494-1.476-6.33-3.985-6.33c-1.416,0-2.236,1.528-2.236,2.345    c0,3.327,9.958,5.185,9.847,13.791c-0.089,7.205-6.057,11.091-11.334,11.091c-10.479,0-12.812-9.575-12.893-10.477l6.629-2.906    c0.248,1.475,1.351,5.976,4.584,5.976c1.432,0,2.702-0.817,2.702-2.616c0-4.382-9.945-5.568-9.945-13.917    c0-2.783,1.885-10.477,11.134-10.477C179.669,398.908,182.33,406.929,182.576,410.192z" fill="#ED9B24"/><polygon fill="#ED9B24" points="205.289,448.758 241.345,430.133 228.21,468.85 220.064,461.893 222.766,454.242 217.732,449.985     210.855,453.752   "/><path d="M47.232,430.747l-0.769,3.345c0,0-2.26-0.56-4.388-0.56c-4.053,0-8.556,4.054-8.556,8.676    c0,5.976,7.777,13.709,13.712,13.709c4.013,0,8.144-4.377,8.144-9.209c0-1.472-0.736-3.557-0.736-3.557l3.603-1.027    c0,0,0.901,2.497,0.901,4.503c0,7.489-6.912,14.529-15.104,14.529c-10.271,0-15.797-9.054-15.797-15.961    c0-8.473,6.178-15.02,14.937-15.02C45.45,430.176,47.232,430.747,47.232,430.747z" fill="#F1EEED"/><polygon fill="#F1EEED" points="58.025,416.846 64.326,413.684 69.758,425.06 78.651,420.722 73.194,409.752 79.524,406.615     92.291,433.437 86.099,436.71 80.179,424.243 71.256,428.554 77.067,440.776 70.821,443.913   "/><polygon fill="#F1EEED" points="96.221,401.568 114.067,397.968 114.884,401.568 103.833,403.655 105.551,412.658     116.111,410.531 116.726,414.05 106.448,416.137 108.233,426.042 119.495,423.669 120.179,427.213 102.141,430.871   "/><polygon fill="#ED9B24" points="197.16,407.961 216.122,417.372 213.167,423.52 203.166,418.282 200.553,423.671 210.031,428.481     206.754,434.509 197.548,429.707 194.188,436.02 204.338,440.941 201.563,446.948 182.328,437.249   "/><polygon fill="#F1EEED" points="197.871,409.908 214.129,418.098 212.545,421.435 202.567,416.254 198.358,424.395     207.976,429.242 206.286,432.389 196.915,427.684 192.199,436.573 202.522,441.664 200.867,444.874 184.428,436.61   "/><polygon fill="#F1EEED" points="131.037,396.794 137.939,396.794 137.557,422.877 148.799,422.877 148.799,426.97     130.572,426.616   "/><path d="M208.006,448.988l3.109,2.867l7.008-3.694l6.424,5.657l-2.601,7.531l5.565,4.802l11.132-32.932    L208.006,448.988z M225.74,450.354l-4.427-3.873l7.046-3.714L225.74,450.354z" fill="#F1EEED"/><path d="M180.694,409.016l-3.466,1.257c-0.326-2.312-1.963-5.648-5.317-5.648c-2.565,0-3.739,2.373-3.739,3.848    c0,5.075,9.876,5.538,9.876,13.505c0,5.677-4.802,9.714-9.685,9.714c-6.906,0-10.369-5.074-11.161-7.969l3.792-1.718    c0.683,3.056,2.593,5.452,5.484,5.452s4.228-2.532,4.228-4.306c0-5.43-9.712-5.84-9.712-13.725c0-4.967,4.313-8.977,9.305-8.977    C175.73,400.449,179.793,404.434,180.694,409.016z" fill="#F1EEED"/><polygon fill="#ED9B24" points="41.899,654.797 44.763,651.63 36.103,643.398 23.046,656.841 27.656,661.097 32.745,655.627     36.687,659.435 39.551,656.406 35.615,652.543 37.532,650.484   "/><path d="M49.729,657.358c-4.966,0-9.904,4.668-9.904,10.357c0,4.131,3.724,9.206,9.411,9.206    c3.562,0,9.702-3.52,9.702-10.547C58.938,661.865,55.54,657.358,49.729,657.358z M47.642,672.172    c-1.544,0-2.551-1.087-2.551-2.671c0-2.36,3.628-7.433,6.315-7.433c0.981,0,2.332,0.857,2.332,2.289    C53.739,667.346,49.379,672.172,47.642,672.172z" fill="#ED9B24"/><polygon fill="#ED9B24" points="95.022,679.216 83.452,675.092 81.871,678.995 84.975,680.101 80.014,693.919 85.66,695.858     90.635,682.115 93.519,683.145   "/><path d="M110.029,691.764c0,0,1.988-0.736,1.988-4.255c0-4.149-4.363-5.187-4.363-5.187l-8.2-1.842l-4.105,18.213    c0,0,7.612,1.94,9.796,1.94c3,0,5.947-1.913,5.947-5.568C111.091,692.448,110.029,691.764,110.029,691.764z M102.095,696.075    l0.729-3.436c0,0,2.292-0.357,2.292,1.826C105.115,697.249,102.095,696.075,102.095,696.075z M103.684,688.602l0.612-2.813    c0,0,1.748-0.027,1.748,1.5C106.044,689.171,103.684,688.602,103.684,688.602z" fill="#ED9B24"/><polygon fill="#ED9B24" points="113.246,702.541 123.642,681.285 130.845,703.634 124.515,703.306 123.179,698.913     119.877,698.858 117.992,702.734   "/><polygon fill="#ED9B24" points="134.665,684.726 140.615,684.726 141.05,698.913 147.406,698.913 147.542,703.141     135.404,703.442   "/><polygon fill="#ED9B24" points="150.027,683.959 156.109,682.897 158.239,697.113 164.593,696.128 165.221,700.494     153.027,702.486   "/><path d="M192.971,679.334l2.292-3.352c0,0-2.618-2.419-6.509-2.419c-5.318,0-9.209,4.504-9.209,9.659    c0,5.075,4.503,10.028,9.618,10.028c5.566,0,9.333-3.724,9.333-9.844l-4.093-0.511c0,2.249-0.655,5.608-3.889,5.608    s-5.237-4.624-5.237-7.205c0-2.58,1.964-3.845,3.744-3.845C191.415,677.455,192.971,679.334,192.971,679.334z" fill="#ED9B24"/><polygon fill="#ED9B24" points="196.245,669.865 201.485,666.895 208.685,679.458 214.048,676.433 216.259,680.073     205.577,686.335   "/><path d="M209.137,662.554l4.87-3.517l7.612,10.19c0,0,0.463,0.638,1.146,0.638c1.29,0,2.469-1.164,2.469-2.034    c0-0.301-0.525-0.937-0.525-0.937l-7.524-10.089l3.534-2.801l8.078,11.049c0,0,0.83,0.859,0.83,2.909    c0,4.726-5.654,7.526-8.172,7.526c-2.965,0-5.015-2.904-5.015-2.904L209.137,662.554z" fill="#ED9B24"/><polygon fill="#F1EEED" points="41.899,653.102 43.125,651.711 36.141,644.946 24.711,656.869 27.463,659.488 32.693,653.902     36.632,657.795 37.914,656.432 34.01,652.495 37.451,648.817   "/><path d="M49.379,658.379c-4.247,0-8.272,4.765-8.272,9.047c0,4.994,4.175,8.24,7.992,8.24    c3.714,0,8.854-4.288,8.854-9.017C57.953,662.516,54.204,658.379,49.379,658.379z M47.601,673.266    c-1.966,0-3.658-1.771-3.658-3.547c0-3.572,4.571-8.936,7.438-8.936c1.766,0,3.504,1.403,3.504,3.466    C54.885,667.699,50.739,673.266,47.601,673.266z" fill="#F1EEED"/><path d="M66.849,668.803c-4.873,0.951-8.83,6.474-7.742,12.058c0.79,4.055,5.414,8.328,11,7.24    c3.494-0.684,8.848-5.308,7.504-12.209C76.75,671.464,72.553,667.693,66.849,668.803z M67.633,683.744    c-1.513,0.293-2.712-0.585-3.016-2.138c-0.45-2.317,2.14-7.992,4.778-8.506c0.964-0.188,2.452,0.397,2.728,1.804    C72.693,677.839,69.34,683.41,67.633,683.744z" fill="#ED9B24"/><path d="M66.701,669.875c-4.169,0.813-7.21,6.254-6.39,10.459c0.953,4.902,5.672,7.288,9.421,6.558    c3.643-0.709,7.87-5.9,6.967-10.54C75.91,672.291,71.438,668.954,66.701,669.875z M67.8,684.822    c-1.928,0.377-3.927-1.039-4.266-2.782c-0.684-3.507,2.777-9.645,5.591-10.193c1.73-0.336,3.709,0.711,4.104,2.735    C73.887,677.966,70.881,684.225,67.8,684.822z" fill="#F1EEED"/><polygon fill="#F1EEED" points="84.133,676.433 93.463,679.757 92.865,681.645 89.918,680.481 85.089,694.466 81.514,693.047     86.288,679.269 83.452,678.37   "/><path d="M108.228,691.546c0,0,2.863-0.519,2.863-3.956c0-3.441-3.82-4.393-3.82-4.393l-7.149-1.502l-3.189,16.153    c0,0,6.165,1.718,8.513,1.718c2.345,0,4.635-1.771,4.635-4.501S108.228,691.546,108.228,691.546z M103.684,697.426    c-0.485,0-2.818-0.635-2.818-0.635l1.189-5.566c0,0,4.275,0.185,4.275,3.13C106.33,697.305,104.164,697.426,103.684,697.426z     M104.848,689.907c-0.719,0-2.467-0.44-2.467-0.44l1.029-5.042c0,0,3.901,0.192,3.901,2.565    C107.312,689.361,105.561,689.907,104.848,689.907z" fill="#F1EEED"/><path d="M239.25,648.529c0,0,0.476-2.07-2.469-3.995c-3.471-2.274-6.729,0.814-6.729,0.814l-6.026,5.856    l12.996,13.404c0,0,5.786-5.313,6.98-7.14c1.644-2.515,1.659-6.023-1.402-8.025C240.406,648.012,239.25,648.529,239.25,648.529z     M238.522,657.53l-2.479-2.497c0,0,0.959-2.109,2.783-0.913C241.156,655.637,238.522,657.53,238.522,657.53z M233.133,652.106    l-2.014-2.052c0,0,0.931-1.476,2.209-0.641C234.905,650.444,233.133,652.106,233.133,652.106z" fill="#ED9B24"/><path d="M238.087,649.914c0,0,1.133-2.679-1.746-4.562c-2.876-1.879-5.768,0.795-5.768,0.795l-5.167,5.158    l11.774,11.514c0,0,4.813-4.22,6.095-6.186c1.282-1.963,1.055-4.853-1.229-6.345C239.762,648.796,238.087,649.914,238.087,649.914    z M240.521,656.938c-0.264,0.402-2.074,2.009-2.074,2.009l-4.008-4.038c0,0,2.494-3.481,4.959-1.867    C241.866,654.654,240.788,656.531,240.521,656.938z M234.864,651.847c-0.392,0.598-1.72,1.824-1.72,1.824l-3.653-3.625    c0,0,2.294-3.157,4.28-1.857C235.759,649.49,235.256,651.25,234.864,651.847z" fill="#F1EEED"/><path d="M125.415,702.296h3.82l-5.867-17.896l-8.386,17.059l2.348,0.066l1.864-3.825l4.888,0.232L125.415,702.296z     M120.047,695.951l2.107-4.324l1.323,4.324H120.047z" fill="#F1EEED"/><polygon fill="#F1EEED" points="135.702,685.844 139.658,685.844 140.038,700.168 146.507,700.168 146.507,702.156     136.383,702.156   "/><polygon fill="#F1EEED" points="151.363,684.726 155.126,684.149 157.418,698.367 163.642,697.329 163.941,699.597     153.927,701.15   "/><path d="M192.521,677.783l1.207-1.68c0,0-1.802-1.392-4.706-1.392c-4.361,0-8.338,3.639-8.227,8.471    c0.101,4.377,2.99,8.799,8.492,8.799c3.99,0,8.083-3.074,8.083-7.569l-2.046-0.248c0,3.235-2.229,5.424-4.911,5.424    c-4.215,0-6.221-5.669-6.221-8.288c0-2.494,1.945-4.953,4.729-4.953C190.884,676.347,192.521,677.783,192.521,677.783z" fill="#F1EEED"/><polygon fill="#F1EEED" points="197.938,670.319 201.103,668.355 208.332,680.961 213.678,677.931 214.716,679.732 206.04,684.67       "/><path d="M210.678,662.764l3.084-2.295l7.094,9.632c0,0,0.792,1.093,2.047,1.093c1.336,0,3.479-1.718,3.479-3.383    c0-0.779-0.857-1.842-0.857-1.842l-6.796-9.047l1.69-1.336l6.911,9.265c0,0,1.228,1.409,1.228,3.211    c0,2.947-4.01,6.241-7.122,6.241c-2.211,0-3.579-2.007-3.579-2.007L210.678,662.764z" fill="#F1EEED"/></g></g><g><g opacity="0.5"><radialGradient cx="136.0657" cy="483.4905" gradientUnits="userSpaceOnUse" id="SVGID_5_" r="239.9692"><stop offset="0.2808" style="stop-color:#FFFFFF"/><stop offset="0.7833" style="stop-color:#FFFFFF;stop-opacity:0"/></radialGradient><path d="M136.776,483.575c82.002-76.144,162.734-19.083,213.406,37.312    C335.541,415.216,244.666,333.58,135.033,333.58c-103.098,0-189.58,72.191-211.712,168.666    C-28.817,534.047,51.709,562.563,136.776,483.575z" fill="url(#SVGID_5_)"/></g><radialGradient cx="135.0315" cy="550.8293" gradientUnits="userSpaceOnUse" id="SVGID_6_" r="218.791"><stop offset="0.3218" style="stop-color:#FFFFFF;stop-opacity:0"/><stop offset="1" style="stop-color:#FFFFFF"/></radialGradient><path d="M-83.762,550.821c0,120.649,98.151,218.798,218.795,218.798   c120.65,0,218.791-98.148,218.791-218.798c0-120.638-98.141-218.78-218.791-218.78C14.389,332.04-83.762,430.183-83.762,550.821z" fill="url(#SVGID_6_)"/></g></svg>