<?xml version="1.0" ?><!DOCTYPE svg  PUBLIC '-//W3C//DTD SVG 1.1//EN'  'http://www.w3.org/Graphics/SVG/1.1/DTD/svg11.dtd'><svg enable-background="new 428.085 294.826 511.999 512" height="512px" id="Layer_1" version="1.1" viewBox="428.085 294.826 511.999 512" width="511.999px" xml:space="preserve" xmlns="http://www.w3.org/2000/svg" xmlns:xlink="http://www.w3.org/1999/xlink"><linearGradient gradientTransform="matrix(0 -1 1 0 4.882813e-004 82.6528)" gradientUnits="userSpaceOnUse" id="SVGID_1_" x1="-724.1736" x2="-212.1736" y1="684.0862" y2="684.0862"><stop offset="0" style="stop-color:#FFFFFF"/><stop offset="0.5" style="stop-color:#CCCCCC"/><stop offset="1" style="stop-color:#999999"/></linearGradient><path d="M940.086,550.821c0,141.163-114.836,256.006-255.998,256.006  c-141.16,0-256.003-114.843-256.003-256.006c0-141.157,114.843-255.994,256.003-255.994  C825.25,294.826,940.086,409.663,940.086,550.821z" fill="url(#SVGID_1_)"/><g><linearGradient gradientUnits="userSpaceOnUse" id="SVGID_2_" x1="684.0862" x2="684.0862" y1="797.5276" y2="304.1252"><stop offset="0" style="stop-color:#999999"/><stop offset="0.5" style="stop-color:#CCCCCC"/><stop offset="1" style="stop-color:#FFFFFF"/></linearGradient><path d="M684.088,797.528c-136.035,0-246.704-110.672-246.704-246.707   c0-136.029,110.669-246.695,246.704-246.695c136.027,0,246.699,110.666,246.699,246.695   C930.787,686.856,820.115,797.528,684.088,797.528z M684.088,322.747c-125.766,0-228.082,102.313-228.082,228.073   c0,125.766,102.316,228.085,228.082,228.085c125.758,0,228.078-102.319,228.078-228.085   C912.166,425.06,809.846,322.747,684.088,322.747z" fill="url(#SVGID_2_)"/></g><g><defs><path d="M465.908,550.823c0,120.32,97.863,218.18,218.182,218.18c120.301,0,218.18-97.859,218.18-218.18    c0-120.303-97.879-218.163-218.18-218.163C563.772,332.66,465.908,430.521,465.908,550.823z" id="SVGID_33_"/></defs><clipPath id="SVGID_4_"><use overflow="visible" xlink:href="#SVGID_33_"/></clipPath><rect clip-path="url(#SVGID_4_)" clip-rule="evenodd" fill="#18233E" fill-rule="evenodd" height="512" width="511.999" x="428.085" y="294.826"/><g clip-path="url(#SVGID_4_)"><path clip-rule="evenodd" d="M684.088,394.236c-8.042,5.386-20.534,14.03-47.76,12.198    c-11.35-0.764-25.97-5.088-35.555-13.627l-55.226,54.071c11.208,8.777,27.899,22.811,27.723,47.383    c-0.112,15.043-5.066,26.055-12.763,38.333c-5.776,9.205-12.891,16.628-17.652,27.374c-5.754,12.997-9.493,24.156-8.926,40.4    c0.574,16.243,4.578,29.847,12.925,42.676c15.186,23.332,39.271,35.042,67.65,41.44c7.43,1.672,13.976,3.086,21.518,4.096    c5.361,0.719,11.798,0.871,17.015,2.323c8.395,2.342,16.12,5.039,23.182,10.722c2.89,2.325,5.28,4.819,7.873,7.221    c2.592-2.401,4.97-4.896,7.863-7.221c7.058-5.683,14.783-8.38,23.181-10.722c5.214-1.452,11.647-1.604,17.012-2.323    c7.546-1.01,14.088-2.424,21.516-4.096c28.386-6.398,52.468-18.108,67.652-41.44c8.35-12.829,12.354-26.433,12.925-42.676    c0.567-16.244-3.172-27.403-8.926-40.4c-4.762-10.746-11.876-18.169-17.652-27.374c-7.696-12.278-12.65-23.29-12.76-38.333    c-0.181-24.572,16.512-38.605,27.72-47.383l-55.226-54.071c-9.587,8.539-24.205,12.863-35.555,13.627    C704.62,408.266,692.128,399.621,684.088,394.236" fill="#FFCC02" fill-rule="evenodd"/><path clip-rule="evenodd" d="M684.088,404.387c-4.373,2.688-8.712,4.921-13.899,6.716    c-11.041,3.819-22.842,4.62-34.435,3.842c-11.436-0.769-24.176-4.475-34.235-10.929l-43.26,42.358    c14.092,12.614,23.694,27.138,23.54,47.95c-0.118,16.537-5.437,29.039-14.068,42.802c-5.549,8.848-12.819,16.691-17.072,26.295    c-5.601,12.638-8.699,22.551-8.202,36.648c0.5,14.151,3.813,26.432,11.551,38.322c14.339,22.039,37.498,32.165,62.375,37.771    c6.901,1.556,13.752,3.023,20.772,3.962c6.126,0.821,12.14,0.881,18.174,2.563c9.687,2.703,18.28,5.891,26.238,12.291    c0.865,0.699,1.699,1.42,2.521,2.157c0.814-0.737,1.65-1.46,2.52-2.157c7.952-6.4,16.546-9.588,26.234-12.291    c6.034-1.683,12.044-1.742,18.174-2.563c7.023-0.938,13.871-2.406,20.772-3.962c24.877-5.605,48.034-15.731,62.378-37.771    c7.735-11.891,11.048-24.171,11.546-38.322c0.495-14.098-2.605-24.011-8.2-36.648c-4.249-9.604-11.524-17.447-17.072-26.295    c-8.632-13.763-13.947-26.265-14.072-42.802c-0.146-20.813,9.456-35.336,23.544-47.95l-43.256-42.358    c-10.063,6.454-22.8,10.16-34.239,10.929c-11.593,0.778-23.394-0.022-34.435-3.842    C692.794,409.308,688.455,407.074,684.088,404.387" fill-rule="evenodd"/><path clip-rule="evenodd" d="M684.082,690.927c8.327-6.563,17.347-9.975,27.485-12.805    c6.267-1.746,12.454-1.843,18.82-2.693c6.856-0.917,13.618-2.373,20.356-3.889c23.563-5.31,45.813-14.782,59.449-35.735    c7.27-11.168,10.317-22.656,10.782-35.902c0.465-13.179-2.528-22.668-7.793-34.563c-4.088-9.22-11.399-17.145-16.761-25.694    c-9.112-14.53-14.665-27.876-14.791-45.286c-0.143-19.892,7.947-34.868,21.43-48.063l-37.109-36.335    c-9.997,5.604-21.981,8.958-33.218,9.712c-12.233,0.822-24.649-0.063-36.3-4.092c-4.364-1.511-8.401-3.418-12.346-5.678    c-3.95,2.26-7.983,4.167-12.352,5.678c-11.65,4.028-24.066,4.912-36.3,4.092c-11.236-0.754-23.223-4.108-33.218-9.712    l-37.109,36.335c13.485,13.194,21.576,28.171,21.429,48.063c-0.125,17.41-5.684,30.756-14.79,45.286    c-5.361,8.55-12.673,16.475-16.757,25.694c-5.269,11.896-8.262,21.385-7.797,34.563c0.465,13.246,3.513,24.734,10.782,35.902    c13.637,20.953,35.891,30.426,59.447,35.735c6.738,1.516,13.507,2.972,20.358,3.889c6.369,0.851,12.554,0.947,18.82,2.693    C666.741,680.952,675.758,684.364,684.082,690.927" fill="#243E81" fill-rule="evenodd"/><path clip-rule="evenodd" d="M601.326,442.89c-0.142,0.008-0.276,0.057-0.318,0.234    c-0.134,0.755-0.419,1.441-0.766,2.153c-0.122,0.22,0.146,0.397,0.339,0.33c1.13-0.436,4.125-1.243,4.912-1.2    c0.991,0.055,1.587,0.384,1.574,3.388l-0.045,15.432c-0.118,2.109-0.118,4.299-0.471,6.085c-0.013,0.068,0.019,0.121,0.122,0.11    c1.474-0.106,2.852-0.146,4.322-0.017c0.066,0.015,0.125-0.023,0.092-0.114c-0.426-1.646-0.686-3.617-0.749-6.073l0.009-15.361    c0.184-2.182,0.163-4.375,0.494-6.546c0.049-0.286-0.234-0.436-0.541-0.363C608.22,441.63,602.633,442.912,601.326,442.89" fill="#FFFFFF" fill-rule="evenodd"/><path clip-rule="evenodd" d="M624.748,569.133c1.311-0.007,5.571,0.763,8.526,0.67    c-0.007-17.436-0.011-34.871-0.017-52.309c-3.137-2.274-4.794-5.136-3.857-9.027c-5.97-6.588,0.835-15.021,13.646-19.707    l34.9-55.632c-0.683-3.651,1.995-7.393,6.187-7.316s6.776,4.119,5.729,7.651l33.23,54.833    c21.672,7.014,20.563,17.232,15.44,21.154c0.18,2.874-1.771,5.212-3.718,6.25l-0.013,58.832c2.823,0.142,5.807-0.604,8.412-0.64    c0.867-0.04,1.864,0.439,1.86,0.888c-0.013,1.046-5.052,1.991-12.31,1.61l0.031-61.902c2.156-0.797,4.477-3.141,3.705-5.903    c5.366-3.388,5.934-12.035-14.787-18.683l-32.465-53.889c-0.474-0.731-0.971-1.545-1.695-2.069c1.5-2.164,0.038-6.155-3.467-6.123    c-3.506,0.034-5.174,3.418-3.842,5.816c-0.758,0.655-1.294,1.383-1.801,2.217l-34.072,54.576    c-15.499,5.674-17.803,13.645-12.747,17.41c-1.617,3.864,0.167,6.447,3.571,8.421l-0.042,55.485    c-4.096,0.135-12.103-0.361-12.17-1.666C622.986,569.494,624.235,569.143,624.748,569.133" fill="#FFFFFF" fill-rule="evenodd"/><path clip-rule="evenodd" d="M680.138,445.859c0.791-2.981,2.797-4.497,4.87-4.411    c1.836,0.078,3.903,2.757,4.809,5.371C686.754,445.566,683.531,445.203,680.138,445.859" fill="#FFFFFF" fill-rule="evenodd"/><path clip-rule="evenodd" d="M676.209,458.209c0.779-4.832,5.034-6.136,9.008-6.06    c4.726,0.088,9.695,3.189,13.293,8.61C691.467,457.689,683.89,456.751,676.209,458.209" fill="#FFFFFF" fill-rule="evenodd"/><path clip-rule="evenodd" d="M672.884,470.373c-0.058-4.253,5.742-6.248,11.454-6.228    c7.727,0.026,16.96,2.494,23.156,10.323C696.525,469.701,684.97,468.494,672.884,470.373" fill="#FFFFFF" fill-rule="evenodd"/><path clip-rule="evenodd" d="M668.458,482.953c1.24-6.218,8.581-6.438,16.752-6.354    c10.695,0.112,22.701,2.097,29.184,10.242C699.619,481.639,682.118,481.47,668.458,482.953" fill="#FFFFFF" fill-rule="evenodd"/><path clip-rule="evenodd" d="M634.331,505.514c-3.255-4.219,1.554-6.795,5.339-8.685    c11.313-5.644,27.091-7.22,44.387-7.355c14.482-0.114,32.127,1.598,44.226,6.521c5.653,2.302,10.725,5.983,6.729,9.864    c-9.395-9.218-30.392-11.126-50.908-11.202C661.874,494.573,642.23,497.428,634.331,505.514" fill="#FFFFFF" fill-rule="evenodd"/><path clip-rule="evenodd" d="M634.456,510.042c-0.683,0.777,0.323,1.727,1.013,1.061    c9.5-7.709,32-9.754,48.619-9.577c16.62,0.178,36.579,1.131,48.678,8.501c0.864,0.782,1.999-0.313,1.086-1.118    c-7.37-5.495-21.861-10.139-49.74-9.946C658.923,499.133,640.323,503.439,634.456,510.042" fill="#FFFFFF" fill-rule="evenodd"/><path clip-rule="evenodd" d="M659.257,517.338c-0.498-1.626-0.293-3.399,1.733-4.912    c5.559-4.13,14.637-3.393,23.085-3.431c14.352,0.009,28.443,0.942,41.785,5.419l0.042,5.955    C704.646,515.867,682.438,514.646,659.257,517.338" fill="#FFFFFF" fill-rule="evenodd"/><path clip-rule="evenodd" d="M659.11,531.869c0.272-7.043,5.734-7.639,14.747-7.502    c0.017,2.355,0.029,4.636,0.042,6.99C668.969,531.497,664.028,531.563,659.11,531.869" fill="#FFFFFF" fill-rule="evenodd"/><path clip-rule="evenodd" d="M693.582,523.977c11.029,0.478,22.099,0.879,32.329,2.83    c0.004,2.178,0.008,4.354,0.013,6.533c-10.412-1.207-21.283-1.721-32.364-1.925C693.569,528.934,693.576,526.454,693.582,523.977" fill="#FFFFFF" fill-rule="evenodd"/><rect clip-rule="evenodd" fill="#FFFFFF" fill-rule="evenodd" height="10.97" width="9.008" x="679.401" y="520.352"/><rect clip-rule="evenodd" fill="#FFFFFF" fill-rule="evenodd" height="2.008" width="9.008" x="679.401" y="533.852"/><path clip-rule="evenodd" d="M659.11,546.185c0.169-8.945,8.632-7.53,24.982-7.468    c13.682,0.054,29.302,0.229,41.832,1.239l0.037,6.77C703.595,545.959,680.933,545.779,659.11,546.185" fill="#FFFFFF" fill-rule="evenodd"/><path clip-rule="evenodd" d="M659.073,560.323c0.854-8.701,9.059-6.105,25.021-6.45    c13.976-0.3,27.712-0.142,41.812-0.573c0.025,2.162,0.055,4.32,0.085,6.479C703.54,561.315,681.189,561.849,659.073,560.323" fill="#FFFFFF" fill-rule="evenodd"/><path clip-rule="evenodd" d="M659.073,574.489c0.334-5.301,4.765-6.324,10.063-6.104    c4.983,0.21,9.982,0.187,14.971,0.313c13.938,0.361,28.885-0.389,41.816-2.089l0.021,6.5    C705.069,575.736,683.296,576.99,659.073,574.489" fill="#FFFFFF" fill-rule="evenodd"/><path clip-rule="evenodd" d="M693.56,531.415l0.022-7.438    c11.029,0.478,22.099,0.879,32.329,2.83l0.013,6.533C715.512,532.133,704.641,531.619,693.56,531.415 M679.401,533.852h9.008    v2.008h-9.008V533.852z M688.408,531.322h-9.008v-10.97h9.008V531.322z M659.11,531.869c0.272-7.043,5.734-7.639,14.747-7.502    l0.042,6.99C668.969,531.497,664.028,531.563,659.11,531.869z M659.11,546.185c0.169-8.945,8.632-7.53,24.982-7.468    c13.682,0.054,29.302,0.229,41.832,1.239l0.037,6.77C703.595,545.959,680.933,545.779,659.11,546.185z M698.51,460.76    c-7.043-3.071-14.62-4.009-22.301-2.551c0.779-4.832,5.034-6.136,9.008-6.06C689.943,452.238,694.912,455.339,698.51,460.76z     M707.494,474.469c-10.97-4.768-22.524-5.975-34.61-4.096c-0.058-4.253,5.742-6.248,11.454-6.228    C692.065,464.172,701.298,466.64,707.494,474.469z M714.394,486.842c-14.774-5.203-32.275-5.372-45.936-3.889    c1.24-6.218,8.581-6.438,16.752-6.354C695.906,476.712,707.911,478.697,714.394,486.842z M659.257,517.338    c-0.498-1.626-0.293-3.399,1.733-4.912c5.559-4.13,14.637-3.393,23.085-3.431c14.352,0.009,28.443,0.942,41.785,5.419l0.042,5.955    C704.646,515.867,682.438,514.646,659.257,517.338z M689.817,446.819c-3.063-1.253-6.286-1.615-9.679-0.96    c0.791-2.981,2.797-4.497,4.87-4.411C686.844,441.526,688.911,444.204,689.817,446.819z M684.104,494.656    c-22.229-0.084-41.874,2.771-49.772,10.857c-3.255-4.219,1.554-6.795,5.339-8.685c11.313-5.644,27.091-7.22,44.387-7.355    c14.482-0.114,32.127,1.598,44.226,6.521c5.653,2.302,10.725,5.983,6.729,9.864C725.617,496.641,704.62,494.733,684.104,494.656z     M684.088,501.526c-16.619-0.177-39.119,1.868-48.619,9.577c-0.689,0.666-1.695-0.283-1.013-1.061    c5.867-6.604,24.467-10.909,49.655-11.08c27.879-0.192,42.37,4.451,49.74,9.946c0.913,0.806-0.222,1.9-1.086,1.118    C720.667,502.656,700.708,501.703,684.088,501.526z M669.137,568.384c4.983,0.21,9.982,0.187,14.971,0.313    c13.938,0.361,28.885-0.389,41.816-2.089l0.021,6.5c-20.876,2.627-42.648,3.881-66.871,1.38    C659.407,569.188,663.838,568.164,669.137,568.384z M659.073,560.323c0.854-8.701,9.059-6.105,25.021-6.45    c13.976-0.3,27.712-0.142,41.812-0.573l0.085,6.479C703.54,561.315,681.189,561.849,659.073,560.323z M622.986,570.081    c-4.063,9.023,40.651,12.976,61.181,14.215c31.724,1.917,62.781-2.059,60.909-9.516c-0.013,1.046-5.052,1.991-12.31,1.61    l0.031-61.902c2.156-0.797,4.477-3.141,3.705-5.903c5.366-3.388,5.934-12.035-14.787-18.683l-32.465-53.889    c-0.474-0.731-0.971-1.545-1.695-2.069c1.5-2.164,0.038-6.155-3.467-6.123c-3.506,0.034-5.174,3.418-3.842,5.816    c-0.758,0.655-1.294,1.383-1.801,2.217l-34.072,54.576c-15.499,5.674-17.803,13.645-12.747,17.41    c-1.617,3.864,0.167,6.447,3.571,8.421l-0.042,55.485C631.06,571.882,623.053,571.386,622.986,570.081z" fill="#18233E" fill-rule="evenodd"/><path clip-rule="evenodd" d="M618.942,447.686c0.023-3.49,3.051-6.718,7.825-6.798    c4.197-0.067,7.199,3.021,7.142,6.366c-0.063,3.518-3.274,5.698-5.164,6.542c3.518,1.837,6.001,4.138,6.039,7.771    c0.042,3.95-3.326,7.962-9.192,7.838c-4.39-0.094-8.049-2.563-8.027-7.104c0.02-3.384,2.483-5.847,6.168-7.764    C621.092,452.967,618.916,451.355,618.942,447.686" fill="#FFFFFF" fill-rule="evenodd"/><path clip-rule="evenodd" d="M626.885,452.74c2.697-1.415,4.21-3.251,4.21-5.238    c-0.006-2.517-1.542-4.762-4.601-4.724c-2.239,0.027-4.435,1.813-4.325,4.39C622.278,449.741,624.653,451.321,626.885,452.74" fill="#243E81" fill-rule="evenodd"/><path clip-rule="evenodd" d="M625.741,455.656c2.803,1.436,5.767,3.249,5.729,6.6    c-0.032,2.868-2.554,5.174-5.616,5.138c-2.24-0.027-5.31-1.562-5.246-5.31C620.675,458.336,623.534,456.819,625.741,455.656" fill="#243E81" fill-rule="evenodd"/><path clip-rule="evenodd" d="M751.638,447.686c0.025-3.49,3.054-6.718,7.827-6.798    c4.195-0.067,7.198,3.021,7.136,6.366c-0.058,3.518-3.271,5.698-5.159,6.542c3.517,1.837,6.006,4.138,6.038,7.771    c0.042,3.95-3.329,7.962-9.192,7.838c-4.388-0.094-8.049-2.563-8.023-7.104c0.013-3.384,2.479-5.847,6.164-7.764    C753.791,452.967,751.609,451.355,751.638,447.686" fill="#FFFFFF" fill-rule="evenodd"/><path clip-rule="evenodd" d="M759.581,452.74c2.697-1.415,4.21-3.251,4.21-5.238    c-0.004-2.517-1.541-4.762-4.599-4.724c-2.241,0.027-4.435,1.813-4.325,4.39C754.976,449.741,757.351,451.321,759.581,452.74" fill="#243E81" fill-rule="evenodd"/><path clip-rule="evenodd" d="M758.438,455.656c2.803,1.436,5.768,3.249,5.729,6.6    c-0.029,2.868-2.555,5.174-5.615,5.138c-2.241-0.027-5.312-1.562-5.244-5.31C753.371,458.336,756.233,456.819,758.438,455.656" fill="#243E81" fill-rule="evenodd"/><path clip-rule="evenodd" d="M731.641,441.031c-0.097,0.02-0.122,0.129-0.125,0.218    c-0.189,1.376-0.483,2.73-0.913,4.063c-0.035,0.112,0.013,0.125,0.062,0.154l0.214,0.109c0.087,0.04,0.228-0.044,0.327-0.131    c1.26-0.858,2.592-1.064,3.826-1.091l9.513,0.021l-13.733,24.157c-0.083,0.129-0.134,0.264-0.092,0.369l0.134,0.26    c0.051,0.106,0.167,0.154,0.306,0.132c1.492-0.203,3.112-0.116,4.67-0.119c0.164,0.028,0.213-0.052,0.184-0.24    c0.399-6.595,8.917-21.485,11.978-25.134c0.089-0.105,0.079-0.245,0.047-0.365c-0.198-0.725-0.298-1.441-0.381-2.179    c-0.013-0.154-0.076-0.296-0.314-0.284c-5.164,0.185-10.294,0.15-15.453,0.079C731.812,441.051,731.721,441.023,731.641,441.031" fill="#FFFFFF" fill-rule="evenodd"/><path clip-rule="evenodd" d="M577.352,592.124c1.285,3.363,1.112,6.943,1.201,10.412    l0.063,25.203c-0.029,3.589-0.356,6.983-0.926,10.318c-0.021,0.108,0.047,0.15,0.108,0.15c9.634-0.053,19.144-0.267,28.754,0.243    c0.105,0.011,0.122-0.067,0.14-0.138c0.498-2.3,1.356-4.967,1.997-7.313c0.234-0.845-0.256-2.021-1.441-1.109    c-2.429,1.855-5.394,3.318-8.404,3.342l-3.724-0.008c-5.402-0.009-6.398-1.943-6.377-7.586l0.004-9.802    c0-0.124,0.129-0.151,0.23-0.151c4.678,0.024,9.174,0.063,13.807,0.612c0.084,0.011,0.1-0.04,0.112-0.084    c0.525-1.951,1.031-3.745,1.563-5.622c0.138-0.372,0.02-0.647-0.474-0.544c-4.925,0.649-10.113,0.465-15.165,0.541    c-0.055,0-0.096-0.078-0.096-0.104c0.047-4.565-0.029-9.086,0.235-13.649c0.011-0.15,0.046-0.209,0.218-0.205    c5.967-0.243,11.734-0.313,14.003,3.437c0.253,0.472,0.801,0.303,0.897,0.018c0.77-2.713,1.503-5.298,2.274-8.011    c0.02-0.074-0.067-0.183-0.182-0.18c-9.485,0.243-19.059,0.209-28.585,0.031C577.388,591.92,577.305,591.991,577.352,592.124" fill="#FFFFFF" fill-rule="evenodd"/><path clip-rule="evenodd" d="M606.372,605.288c-0.067,0-0.096,0.08-0.045,0.121    c2.114,2.424,3.361,5.232,4.371,7.928c2.146,6.423,4.293,12.843,6.437,19.266c0.574,1.808,1.099,3.695,1.298,5.426    c0.01,0.134,0.089,0.209,0.218,0.196c2.473-0.18,5.136-0.18,7.67-0.146c0.083,0.007,0.199-0.029,0.212-0.12    c0.391-1.862,0.83-3.57,1.513-5.391l7.952-18.507c1.228-2.838,2.894-5.829,4.637-8.229c0.49-0.554,0.545-1.088-0.628-0.94    c-2.714,0.21-5.412,0.357-8.084,0.258c-0.218-0.013-0.288,0.068-0.271,0.195c0.197,3.561-0.737,6.953-1.984,10.179l-5.143,13.584    l-5.014-17.137c-0.545-2.253-0.883-4.477-1.209-6.856c-0.022-0.106-0.019-0.256-0.236-0.237    C614.245,605.241,610.288,605.321,606.372,605.288" fill="#FFFFFF" fill-rule="evenodd"/><path clip-rule="evenodd" d="M647.863,621.208c-0.093-0.002-0.151,0.019-0.151,0.095    c0.116,6.889,3.99,12.361,11.382,12.333c2.531-0.013,4.726-0.638,6.962-2.237c0.497-0.35,1.222-0.117,1,0.824l-1.387,5.016    c-0.025,0.086-0.121,0.149-0.212,0.179c-3.293,1.028-7.095,1.905-10.299,1.933c-9.294,0.078-17.077-6.485-16.696-17.554    c0.381-11.189,7.11-17.184,16.172-17.182c6.495,0.004,13.146,3.375,13.21,12.834c0.007,1.158,0.017,2.819-0.649,3.417    c-0.122,0.125-0.293,0.14-0.498,0.136L647.863,621.208z" fill="#FFFFFF" fill-rule="evenodd"/><path clip-rule="evenodd" d="M647.728,617.062c0.177-4.118,1.353-8.464,6.271-8.508    c3.144,0.078,5.242,2.205,5.246,5.039C659.249,618.364,654.358,616.52,647.728,617.062" fill="#243E81" fill-rule="evenodd"/><path clip-rule="evenodd" d="M670.695,605.561c-0.169,0.002-0.21,0.096-0.176,0.22    c0.782,2.229,1.483,7.426,1.41,11.137l-0.042,11.118c-0.263,3.308-0.134,7.078-0.757,10.019c-0.025,0.112,0.008,0.187,0.151,0.171    c3.438-0.218,6.934-0.173,10.481-0.042c0.083,0.004,0.227-0.002,0.159-0.167c-1.057-2.836-1.365-6.424-1.419-10.012l0.045-6.646    c0-5.362,2.798-8.759,5.893-8.691c1.516,0.033,2.173,0.928,3.111,2.035c0.313,0.368,0.893,0.343,1.025-0.051l2.568-9.196    c0.084-0.192-0.013-0.26-0.246-0.401c-0.638-0.374-1.756-0.521-2.865-0.518c-4.767,0.015-7.475,4.449-10.406,8.443    c0.045-2.5,0.091-4.996,0.138-7.495c-0.102-0.063-0.198-0.124-0.294-0.186C676.545,605.434,673.643,605.521,670.695,605.561" fill="#FFFFFF" fill-rule="evenodd"/><path clip-rule="evenodd" d="M700.5,599.543c-0.097,0.036-0.064,0.1-0.039,0.194    c0.186,1.926,0.26,3.862,0.282,5.777c-0.006,0.082-0.025,0.226-0.151,0.218c-1.262-0.041-2.472,0.011-3.741-0.178    c-0.108-0.005-0.222,0.051-0.25,0.147l-1.202,4.297c-0.131,0.58,0.087,0.766,0.648,0.647c1.396-0.205,2.877-0.33,4.158-0.336    c0.256-0.03,0.314,0.135,0.314,0.336l0.042,18.202c-0.042,7.747,3.991,10.541,9.275,10.448c2.627-0.045,5.328-0.586,7.882-1.336    c0.139-0.045,0.219-0.093,0.282-0.23l1.275-4.398c0.253-0.746-0.388-1.138-0.9-0.826c-0.983,0.572-2.512,1.242-4.086,1.242    c-4.008,0.005-5.113-2.826-5.13-7.47v-11.409c0.013-1.382,0.138-3.892,0.184-4.342c0.005-0.109,0.089-0.173,0.247-0.173    c2.852,0.042,5.775-0.06,8.618,0.302c0.09,0.011,0.16-0.055,0.186-0.129l1.23-4.531c0.177-0.496,0.08-0.955-0.698-0.752    c-1.039,0.243-2.162,0.456-3.242,0.45l-6.185,0.042c-0.093-0.007-0.118-0.096-0.118-0.186c-0.009-2.895,0.256-6.006,0.564-8.962    c0.089-0.931-0.376-1.144-1.209-0.666C706.392,597.307,703.359,598.662,700.5,599.543" fill="#FFFFFF" fill-rule="evenodd"/><path clip-rule="evenodd" d="M738.241,604.522c-11.585,0.333-17.862,7.276-17.93,17.849    c-0.067,10.657,5.863,17.201,17.138,16.927c10.75-0.263,17.254-7.098,17.551-18.267    C755.24,612.23,749.694,604.192,738.241,604.522" fill="#FFFFFF" fill-rule="evenodd"/><path clip-rule="evenodd" d="M737.156,608.406c6.911-0.229,8.158,7.636,8.276,13.294    c0.121,6.11-0.743,13.732-7.86,13.79c-6.404,0.055-7.761-7.738-7.773-13.874C729.789,617.38,730.183,608.637,737.156,608.406" fill="#243E81" fill-rule="evenodd"/><path clip-rule="evenodd" d="M756.88,605.477c-0.062-0.184-0.013-0.294,0.189-0.294    c3.178,0.04,6.407,0.021,9.506-0.241c0.18-0.019,0.365,0.089,0.356,0.292c-0.084,1.948-0.184,4.268-0.238,5.582    c3.282-3.576,7.864-6.36,12.048-6.332c6.457,0.042,10.532,3.132,10.469,11.724c0.013,3.859,0.031,7.717,0.044,11.578    c-0.01,3.643,0.442,7.662,1.355,10.176c0.076,0.218-0.038,0.249-0.208,0.241c-3.409-0.214-6.944-0.188-10.449,0    c-0.26,0.021-0.349-0.117-0.313-0.303c0.531-3.354,0.782-6.542,0.782-9.845v-10.429c0.054-2.639-0.85-6.671-5.977-6.665    c-3.358,0.002-7.341,2.828-7.442,7.689v8.82c0.038,3.652,0.365,7.555,1.361,10.458c0.071,0.233-0.083,0.321-0.292,0.292    c-3.502-0.165-6.895-0.142-10.311-0.025c-0.224,0.013-0.307-0.055-0.266-0.238c0.638-3.966,0.733-8.17,0.788-12.211l0.029-8.691    C758.322,613.28,757.831,608.385,756.88,605.477" fill="#FFFFFF" fill-rule="evenodd"/></g></g><g><g opacity="0.5"><radialGradient cx="685.1213" cy="483.4905" gradientUnits="userSpaceOnUse" id="SVGID_5_" r="239.9682"><stop offset="0.2808" style="stop-color:#FFFFFF"/><stop offset="0.7833" style="stop-color:#FFFFFF;stop-opacity:0"/></radialGradient><path d="M685.83,483.575c82.002-76.144,162.734-19.083,213.406,37.312    C884.596,415.216,793.721,333.58,684.088,333.58c-103.098,0-189.579,72.191-211.712,168.666    C520.239,534.047,600.764,562.563,685.83,483.575z" fill="url(#SVGID_5_)"/></g><radialGradient cx="684.0862" cy="550.8293" gradientUnits="userSpaceOnUse" id="SVGID_6_" r="218.791"><stop offset="0.3218" style="stop-color:#FFFFFF;stop-opacity:0"/><stop offset="1" style="stop-color:#FFFFFF"/></radialGradient><path d="M465.293,550.821c0,120.649,98.151,218.798,218.795,218.798   c120.65,0,218.791-98.148,218.791-218.798c0-120.638-98.141-218.78-218.791-218.78C563.445,332.04,465.293,430.183,465.293,550.821   z" fill="url(#SVGID_6_)"/></g></svg>