<?xml version="1.0" ?><!DOCTYPE svg  PUBLIC '-//W3C//DTD SVG 1.1//EN'  'http://www.w3.org/Graphics/SVG/1.1/DTD/svg11.dtd'><svg enable-background="new 1535.196 294.826 511.999 512" height="512px" id="Layer_1" version="1.1" viewBox="1535.196 294.826 511.999 512" width="511.999px" xml:space="preserve" xmlns="http://www.w3.org/2000/svg" xmlns:xlink="http://www.w3.org/1999/xlink"><linearGradient gradientTransform="matrix(0 -1 1 0 4.882813e-004 82.6528)" gradientUnits="userSpaceOnUse" id="SVGID_1_" x1="-724.1736" x2="-212.1736" y1="1791.1965" y2="1791.1965"><stop offset="0" style="stop-color:#FFFFFF"/><stop offset="0.5" style="stop-color:#CCCCCC"/><stop offset="1" style="stop-color:#999999"/></linearGradient><path d="M2047.197,550.821c0,141.163-114.836,256.006-255.998,256.006  c-141.16,0-256.002-114.843-256.002-256.006c0-141.157,114.842-255.994,256.002-255.994  C1932.361,294.826,2047.197,409.663,2047.197,550.821z" fill="url(#SVGID_1_)"/><g><linearGradient gradientUnits="userSpaceOnUse" id="SVGID_2_" x1="1791.1965" x2="1791.1965" y1="797.5276" y2="304.1252"><stop offset="0" style="stop-color:#999999"/><stop offset="0.5" style="stop-color:#CCCCCC"/><stop offset="1" style="stop-color:#FFFFFF"/></linearGradient><path d="M1791.198,797.528c-136.035,0-246.703-110.672-246.703-246.707   c0-136.029,110.668-246.695,246.703-246.695c136.027,0,246.699,110.666,246.699,246.695   C2037.898,686.856,1927.226,797.528,1791.198,797.528z M1791.198,322.747c-125.766,0-228.082,102.313-228.082,228.073   c0,125.766,102.316,228.085,228.082,228.085c125.758,0,228.078-102.319,228.078-228.085   C2019.277,425.06,1916.956,322.747,1791.198,322.747z" fill="url(#SVGID_2_)"/></g><g><defs><path d="M1573.019,550.823c0,120.32,97.863,218.18,218.182,218.18c120.301,0,218.18-97.859,218.18-218.18    c0-120.303-97.879-218.163-218.18-218.163C1670.882,332.66,1573.019,430.521,1573.019,550.823z" id="SVGID_45_"/></defs><clipPath id="SVGID_4_"><use overflow="visible" xlink:href="#SVGID_45_"/></clipPath><rect clip-path="url(#SVGID_4_)" fill="#1B325E" height="512" width="512" x="1535.197" y="294.826"/><g clip-path="url(#SVGID_4_)"><path d="M1951.706,550.826c0,42.568-16.915,83.399-47.013,113.496c-30.101,30.104-70.928,47.016-113.5,47.016    c-42.567,0-83.396-16.912-113.496-47.016c-30.102-30.097-47.016-70.928-47.016-113.496c0-42.572,16.914-83.396,47.016-113.496    c30.1-30.102,70.929-47.016,113.496-47.016c42.572,0,83.399,16.914,113.5,47.016    C1934.791,467.43,1951.706,508.254,1951.706,550.826" fill="#FFFFFF"/><g><path d="M1791.194,714.042c-43.594,0-84.578-16.978-115.408-47.808c-30.83-30.828-47.806-71.813-47.806-115.408     s16.976-84.58,47.806-115.407c30.83-30.831,71.814-47.805,115.408-47.805c43.596,0,84.581,16.974,115.41,47.805     c30.825,30.827,47.805,71.812,47.805,115.407s-16.979,84.58-47.805,115.408C1875.775,697.065,1834.789,714.042,1791.194,714.042z      M1791.194,393.02c-42.149,0-81.779,16.414-111.586,46.219c-29.805,29.81-46.222,69.438-46.222,111.588     c0,42.151,16.417,81.78,46.222,111.588c29.807,29.805,69.437,46.22,111.586,46.22c42.15,0,81.78-16.415,111.586-46.22     c29.807-29.808,46.222-69.437,46.222-111.588c0-42.15-16.415-81.778-46.222-111.588     C1872.974,409.434,1833.344,393.02,1791.194,393.02z" fill="#EC2224"/></g><path d="M1791.194,387.615c-43.285,0-84.798,17.194-115.408,47.801c-30.609,30.608-47.806,72.124-47.806,115.411    s17.196,84.804,47.806,115.411c30.61,30.606,72.123,47.805,115.408,47.805c43.289,0,84.805-17.198,115.411-47.805    c30.604-30.607,47.804-72.124,47.804-115.411s-17.199-84.803-47.804-115.411C1875.998,404.809,1834.483,387.615,1791.194,387.615     M1791.194,393.02c41.854,0,81.992,16.623,111.586,46.224c29.598,29.592,46.222,69.73,46.222,111.583    s-16.624,81.991-46.222,111.586c-29.594,29.598-69.732,46.222-111.586,46.222c-41.851,0-81.991-16.624-111.583-46.222    c-29.599-29.595-46.225-69.733-46.225-111.586s16.626-81.991,46.225-111.583C1709.202,409.643,1749.343,393.02,1791.194,393.02" fill="#1B325E"/><g><path d="M1791.194,720.53c-45.323,0-87.939-17.654-119.996-49.705c-32.054-32.052-49.704-74.669-49.704-119.998     s17.65-87.945,49.704-119.998c32.057-32.051,74.671-49.705,119.996-49.705c45.332,0,87.947,17.654,120,49.705     c32.051,32.053,49.704,74.669,49.704,119.998s-17.653,87.946-49.704,119.998C1879.141,702.875,1836.526,720.53,1791.194,720.53z      M1791.194,399.51c-40.421,0-78.419,15.74-106.995,44.321c-28.58,28.576-44.321,66.574-44.321,106.995     s15.741,78.419,44.321,106.995c28.576,28.583,66.576,44.324,106.995,44.324c40.421,0,78.421-15.741,106.998-44.324     c28.581-28.576,44.321-66.574,44.321-106.995s-15.74-78.419-44.321-106.995C1869.615,415.25,1831.615,399.51,1791.194,399.51z" fill="#1B325E"/></g><path d="M1791.194,387.615c-43.285,0-84.798,17.194-115.408,47.801c-30.609,30.608-47.806,72.124-47.806,115.411    s17.196,84.804,47.806,115.411c30.61,30.606,72.123,47.805,115.408,47.805c43.289,0,84.805-17.198,115.411-47.805    c30.604-30.607,47.804-72.124,47.804-115.411s-17.199-84.803-47.804-115.411C1875.998,404.809,1834.483,387.615,1791.194,387.615     M1791.194,393.02c41.854,0,81.992,16.623,111.586,46.224c29.598,29.592,46.222,69.73,46.222,111.583    s-16.624,81.991-46.222,111.586c-29.594,29.598-69.732,46.222-111.586,46.222c-41.851,0-81.991-16.624-111.583-46.222    c-29.599-29.595-46.225-69.733-46.225-111.586s16.626-81.991,46.225-111.583C1709.202,409.643,1749.343,393.02,1791.194,393.02" fill="#7CB0DC"/><g><path d="M1791.643,655.509c-27.789,0-53.921-10.823-73.573-30.479c-19.65-19.65-30.472-45.777-30.472-73.568     c0-27.794,10.821-53.927,30.472-73.577c19.65-19.649,45.78-30.47,73.573-30.47c27.792,0,53.92,10.82,73.574,30.47     c19.649,19.656,30.477,45.784,30.477,73.577c0,27.787-10.827,53.914-30.477,73.568     C1845.561,644.686,1819.431,655.509,1791.643,655.509z M1791.643,453.42c-26.188,0-50.81,10.196-69.325,28.716     c-18.518,18.516-28.715,43.136-28.715,69.326c0,26.188,10.197,50.806,28.715,69.32c18.52,18.52,43.141,28.721,69.325,28.721     c26.184,0,50.805-10.201,69.324-28.721c18.52-18.519,28.719-43.138,28.719-69.32c0-26.188-10.199-50.806-28.719-69.326     C1842.45,463.616,1817.831,453.42,1791.643,453.42z" fill="#1B325E"/></g><path d="M1885.643,551.305c0,25.007-9.934,48.987-27.614,66.673c-17.681,17.681-41.663,27.615-66.667,27.615    c-25.005,0-48.99-9.935-66.67-27.615c-17.682-17.686-27.614-41.666-27.614-66.673c0-25.006,9.933-48.982,27.614-66.666    c17.68-17.683,41.665-27.617,66.67-27.617c25.004,0,48.986,9.935,66.667,27.617    C1875.709,502.323,1885.643,526.299,1885.643,551.305" fill="#7CB0DC"/><path clip-rule="evenodd" d="M1713.424,473.404c-6.739,28.699-6.82,54.593-6.54,72.233    c-0.441,80.401,59.04,105.357,84.278,112.969c25.241-7.611,84.724-32.567,84.282-112.969c0.278-17.641,0.196-43.534-6.542-72.233    c-39.042-6.845-62.783-6.187-77.74-6.356C1776.209,467.217,1752.466,466.559,1713.424,473.404" fill="#1B325E" fill-rule="evenodd"/><path clip-rule="evenodd" d="M1721.49,479.017c-4.282,19.013-6.475,36.175-7.305,50.431    c-0.332,15.542-0.507,31.304,1.941,45.206c1.287,7.313,3.434,14.934,7.321,22.799c8.131,15.235,19.753,28.733,30.317,35.91    c13.955,10.612,28.367,16.482,37.397,19.343c9.033-2.86,23.447-8.73,37.4-19.343c10.563-7.177,22.188-20.675,30.313-35.91    c3.892-7.865,6.039-15.485,7.327-22.799c2.446-13.902,2.271-29.664,1.935-45.206c-0.822-14.256-3.015-31.418-7.301-50.431    c-35.085-6.407-56.236-5.793-69.674-5.952C1777.729,473.224,1756.575,472.61,1721.49,479.017" fill="#FCB959" fill-rule="evenodd"/><path d="M1767.766,671.645c-0.303-0.199-1.057-1.071-1.754-1.512c-5.694-3.659-12.418-0.131-12.739,6.761    c-0.185,4.214,2.908,7.799,6.357,8.473c3.561,0.663,6.1-0.955,8.44-3.003l3.597,3.779c-1.86,1.956-4.087,3.789-8.111,4.57    c-0.747,0.127-1.774,0.193-3.087,0.193c-7.504-0.724-11.768-4.701-13.009-11.088c-0.718-3.426-0.121-6.938,1.698-9.913    c2.167-3.534,5.355-5.575,9.449-6.373c4.889-0.922,9.858,0.658,12.909,3.873L1767.766,671.645z" fill="#1B325E"/><rect fill="#1B325E" height="26.686" width="6.018" x="1777.318" y="663.71"/><polygon fill="#1B325E" points="1810.958,669.248 1802.834,669.248 1802.834,690.396 1796.805,690.396 1796.805,669.248     1788.699,669.248 1788.699,663.71 1810.958,663.71   "/><polygon fill="#1B325E" points="1839.746,663.71 1829.436,679.652 1829.436,690.396 1823.555,690.396 1823.555,679.652     1813.368,663.71 1820.271,663.71 1826.54,674.602 1833.07,663.71   "/><polygon clip-rule="evenodd" fill="#1B325E" fill-rule="evenodd" points="1688.442,504.563 1685.766,509.539 1662.684,497.444     1665.575,491.981 1678.754,491.147 1671.992,479.697 1674.867,474.278 1697.93,486.479 1695.324,491.474 1680.053,483.385     1686.674,495.375 1673.231,496.716   "/><path d="M1719.64,462.359l-4.21,4.398l-5.89-2.33l-7.618,8.092l2.685,5.776l-3.997,4.18l-11.492-26.134    l3.613-3.879L1719.64,462.359z M1704.522,462.511l-8.713-3.384l3.853,8.432L1704.522,462.511z" fill="#1B325E"/><polygon clip-rule="evenodd" fill="#1B325E" fill-rule="evenodd" points="1723.461,459.588 1709.854,437.311 1714.402,434.516     1733.281,442.021 1724.859,428.186 1729.721,425.244 1743.251,447.604 1739.077,450.09 1719.569,442.443 1728.241,456.648   "/><path d="M1762.803,421.998c-0.34-0.104-1.281-0.715-2.064-0.943c-6.357-1.88-11.714,3.282-10.131,9.849    c0.979,4.021,4.872,6.544,8.3,6.228c3.532-0.353,5.474-2.568,7.115-5.134l4.424,2.565c-1.216,2.351-2.809,4.689-6.38,6.525    c-0.667,0.322-1.618,0.668-2.848,1.029c-7.26,1.372-12.36-1.203-15.281-6.871c-1.61-3.021-2.013-6.492-1.118-9.787    c1.074-3.921,3.513-6.715,7.146-8.584c4.342-2.208,9.457-2.085,13.201,0.108L1762.803,421.998z" fill="#1B325E"/><polygon fill="#1B325E" points="1881.291,450.706 1874.971,445.8 1862.305,462.482 1857.679,459.001 1870.398,442.401     1864.089,437.585 1867.295,433.385 1884.496,446.538   "/><polygon clip-rule="evenodd" fill="#1B325E" fill-rule="evenodd" points="1776.351,411.785 1776.955,437.914 1782.647,437.72     1782.323,427.223 1793.104,426.915 1793.358,437.485 1798.994,437.358 1798.414,411.245 1792.658,411.366 1792.934,421.754     1782.246,422.031 1782.009,411.675   "/><polygon clip-rule="evenodd" fill="#1B325E" fill-rule="evenodd" points="1812.543,412.887 1831.759,417.068 1830.637,422.036     1816.978,419.03 1815.774,424.361 1827.066,426.742 1824.381,431.311 1814.741,429.229 1813.521,434.687 1827.453,437.684     1826.358,442.623 1806.985,438.42   "/><path clip-rule="evenodd" d="M1847.55,434.642c-3.376-2.492-3.412-3.998-2.537-5.228    c0.885-0.971,1.944-0.959,3.073-0.562c1.809,0.615,3.224,1.853,4.316,3.272c0.597,0.782,1.062,1.545,1.516,2.249l4.474-2.763    c-0.677-1.287-2.506-4.969-7.902-7.284c-2.536-1.107-8.626-2.127-11.243,4.077c-1.059,2.689-0.654,4.421,0.023,5.614    c1.51,2.4,3.84,4.094,5.965,5.972c0.879,0.729,1.79,1.606,2.162,2.661c0.264,0.8,0.044,1.633-0.551,2.146    c-3.099,2.638-8.732-3.072-9.826-6.137l-4.8,2.288c2.556,4.966,6.887,9.438,13.751,9.64c2.469-0.122,5.305-1.473,6.631-4.466    c0.887-2.388,1.09-4.563-0.171-6.559C1851.239,437.694,1849.163,435.791,1847.55,434.642" fill="#1B325E" fill-rule="evenodd"/><polygon clip-rule="evenodd" fill="#1B325E" fill-rule="evenodd" points="1892.47,454.263 1905.058,469.371 1901.117,472.596     1892.192,461.833 1887.968,465.298 1895.696,474.48 1890.526,476.152 1884.16,468.503 1879.844,472.061 1888.991,482.989     1885.089,486.205 1872.39,470.985   "/><path d="M1912.33,492.295l-2.713-5.297l-6.643,3.418l2.499,5.097c1.355,2.843,3.492,3.148,5.227,2.513    C1912.605,497.325,1913.793,494.898,1912.33,492.295 M1898.527,511.414l-2.983-5.973l5.002-8.715l-2.174-4.073l-7.445,3.716    l-2.543-5.113l23.322-11.706l4.956,9.925c0.679,1.36,1.011,2.169,1.356,3.22c0.702,2.022,0.75,3.959,0.092,5.563    c-2.152,5.268-9.108,7.856-14.104,3.27L1898.527,511.414z" fill="#1B325E"/><path d="M1912.457,553.463c-2.206,1.962-5.536,1.484-7.426-0.482c-0.836-0.895-1.344-2.063-1.35-3.333    c0.067-0.957,0.338-1.862,0.75-2.646c0.502-0.946,1.169-1.643,2.035-2.111c1.989-1.079,4.616-1.147,6.449-0.044    c1.301,0.804,2.193,2.15,2.604,3.712c0.247,0.966,0.373,2.069,0.373,3.301c-0.057,3.105-0.928,6.037-3.326,7.486    c-0.655,0.393-1.457,0.654-2.421,0.769c-2.559,0.298-4.44-0.497-6.018-1.7l1.758-2.611    C1910.217,559.282,1912.368,555.935,1912.457,553.463 M1912.609,549.436c0.047-1.351-1.089-2.212-2.195-2.479    c-0.512-0.113-1.06-0.107-1.614,0.044c-0.53,0.181-0.938,0.458-1.231,0.795c-1.267,1.496-0.319,3.357,0.78,3.81    c0.398,0.178,0.918,0.295,1.601,0.307C1912.13,551.864,1912.594,550.107,1912.609,549.436" fill="#7CB0DC"/><path d="M1932.268,556.56h-2.003v3.57h-3.101v-3.57h-7.813l-0.431-2.377l8.484-10.004h2.859v9.674h2.003V556.56z     M1927.164,553.853v-5.023l-4.503,5.023H1927.164z" fill="#7CB0DC"/><polygon fill="#7CB0DC" points="1653.937,548.302 1653.272,545.603 1657.445,544.237 1660.018,544.237 1660.018,559.999     1656.712,559.999 1656.712,547.488   "/><path d="M1673.266,551.804c1.869,0.717,2.753,2.144,2.778,4.028c-0.019,2.188-1.604,3.598-3.469,4.115    c-0.739,0.198-1.583,0.297-2.525,0.297c-2.597-0.071-5.963-1.24-6.022-4.412c0.091-2.179,0.582-2.988,2.477-4.028    c-1.914-1.203-2.608-3.229-1.405-5.412c0.283-0.503,0.675-0.926,1.166-1.261c0.499-0.338,1.066-0.591,1.716-0.765    c0.65-0.173,1.334-0.259,2.069-0.259c2.735-0.027,5.17,1.321,5.441,4.109c0.065,0.758-0.055,1.535-0.461,2.198    C1674.697,550.99,1674.122,551.442,1673.266,551.804 M1671.647,550.23c0.382-0.387,0.572-0.832,0.572-1.321    c0-0.567-0.19-1.009-0.572-1.325c-0.38-0.332-0.911-0.493-1.597-0.493c-0.687,0-1.221,0.161-1.615,0.493    c-0.378,0.316-0.567,0.758-0.567,1.325c0,0.489,0.194,0.935,0.582,1.321C1669.237,550.858,1670.568,551.001,1671.647,550.23     M1672.701,555.281c-0.048-1.596-1.813-2.018-2.979-1.973c-1.222,0.09-2.465,0.82-2.479,1.973    c0.043,1.506,1.592,2.193,2.808,2.203C1671.465,557.48,1672.688,556.56,1672.701,555.281" fill="#7CB0DC"/><path clip-rule="evenodd" d="M1791.162,652.705c9.033-2.86,23.447-8.73,37.4-19.343    c10.563-7.177,22.188-20.675,30.313-35.91c3.892-7.865,6.039-15.485,7.327-22.799c2.446-13.902,2.271-29.664,1.935-45.206    c-0.822-14.256-3.015-31.418-7.301-50.431c-35.085-6.407-56.236-5.793-69.674-5.952" fill="#E7AB22" fill-rule="evenodd"/><path clip-rule="evenodd" d="M1862.356,560.332c-3.328,40.103-22.07,67.832-71.193,85.38    c-49.116-17.548-67.863-45.272-71.191-85.373L1862.356,560.332z" fill="#7CB0DC" fill-rule="evenodd"/><path clip-rule="evenodd" d="M1719.587,554.307c-0.344-7.747-0.176-15.929,0.411-24.568    c0.768-13.416,1.605-29.055,5.588-46.947c31.101-5.622,52.199-5.514,65.576-5.909c13.381,0.396,34.479,0.287,65.577,5.909    c3.983,17.893,4.821,33.531,5.589,46.947c0.593,8.678,0.757,16.898,0.407,24.677L1719.587,554.307z" fill="#FFFFFF" fill-rule="evenodd"/><path clip-rule="evenodd" d="M1838.601,617.529c-3.794,3.896-8.097,7.551-12.966,10.979    l-56.524-68.176h22.126L1838.601,617.529z M1858.698,581.837c-1.871,6.827-4.42,13.213-7.748,19.171l-33.656-40.676h23.584    L1858.698,581.837z M1807.839,638.818c-5.122,2.451-10.674,4.748-16.677,6.895l-71.191-85.373l23.153-0.007L1807.839,638.818z" fill="#A7C8E6" fill-rule="evenodd"/><path clip-rule="evenodd" d="M1808.704,543.53c9.968-0.469,20.071-2.036,24.893-3.284    c-1,7.78-8.851,6.888-4.423,14.141l-10.114-0.009c-3.804-1.282-7.752-2.903-11.095-3.175c-1.013-0.079-1.867-0.063-2.723,0.268    c-10.508,4.046-19.049-0.577-26.916-0.768c-0.296,0.953-1.961,2.089-5.275,2.436c-5.647,0.681-9.681-1.664-14.135-1.819    c-1.611-0.051-3.143,0.489-4.433,3.013c-2.273-3.158-3.659-5.554-6.817-9.476c-4.75-2.273-9.147-4.104-13.387-5.744l0.218-0.891    c13.519,4.173,23.771,5.698,32.934,6.521c11.314,0.431,23.483,1.174,34.528,0.402    C1805.084,544.186,1806.318,543.644,1808.704,543.53" fill="#F9C14E" fill-rule="evenodd"/><path clip-rule="evenodd" d="M1831.992,541.336c-1.172,5.006-8.639,6.896-3.675,13.05    l-5.921-0.004c-3.815-1.32-10.304-4.188-17.591-4.267c-2.621,2.018-7.527,2.998-14.942,1.347    c-3.443-0.766-8.148-1.885-12.916-1.857c-1.146,4.646-16.402,2.751-21.779-4.331l-6.962-1.737l-1.598-1.271    c10.986,2.298,22.216,3.646,27.948,3.821c10.467,0.382,20.298,0.399,27.305,0.153c2.344-0.679,2.79-0.972,3.956-1.412    c1.668-0.833,3.653-0.693,5.278-0.782C1820.856,543.517,1827.031,542.248,1831.992,541.336" fill="#E9AA21" fill-rule="evenodd"/><path clip-rule="evenodd" d="M1785.285,543.375c1.334-1.99,3.537-2.988,6.117-3.555    l-0.071,5.661c0.65,0,1.293-0.006,1.937-0.009l-0.08-6.09c7.103-0.925,14.787,0.218,20.919,1.743l-0.033,2.051    c0.668-0.054,1.273-0.116,1.933-0.178l0.02-2.426l20.075-7.011c-5.696-7.538-5.183-16.32-3.721-25.289    c-1.099,4.519-3.708,12.805-10.569,20.445c-5.42,6.042-4.876,7.349-5.811,9.049l-0.386-40.721l-4.633,1.562    c-0.97,0.279-0.401,0.727-1.196,1.094l-4.666,1.787l5.35-0.247c0.787,0,0.301-1.076,1.03-1.194l2.969-0.299l-0.38,40.234    c-3.172-4.972-8.688-10.937-6.449-23.438C1801.959,538.085,1783.904,535.74,1785.285,543.375 M1777.415,520.926    c-4.868,16.642-19.296,14.493-18.386,21.175c2.205-1.938,4.313-2.11,6.434-2.63l0.039,5.087c0.609,0.063,1.213,0.117,1.811,0.176    l0.093-5.503c5.219-0.62,9.801,0.033,14.513,0.43C1778.094,533.524,1775.668,527.32,1777.415,520.926" fill="#E9AA21" fill-rule="evenodd"/><path clip-rule="evenodd" d="M1832.38,508.274c-1.099,4.519-3.708,12.805-10.569,20.445    c-5.42,6.042-4.876,7.349-5.811,9.049l-0.223-23.733L1832.38,508.274z M1782.308,525.248l25.331-8.702    c-5.68,21.539-23.735,19.194-22.354,26.829C1781.068,539.378,1776.913,531.824,1782.308,525.248 M1756.41,528.202l21.005-7.276    c-4.868,16.642-19.296,14.493-18.386,21.175C1754.115,537.281,1753.932,531.49,1756.41,528.202" fill="#FCB959" fill-rule="evenodd"/><path clip-rule="evenodd" d="M1793.155,492.147l-0.048-7.301l-4.636,1.563    c-0.971,0.276-0.4,0.719-1.197,1.088l-4.664,1.785l5.352-0.245c0.785,0,0.298-1.071,1.025-1.194l2.971-0.294l-0.047,5.042    L1793.155,492.147z" fill="#E9AA21" fill-rule="evenodd"/><path clip-rule="evenodd" d="M1767.018,510.125l-0.047-8.883l-4.633,1.558    c-0.971,0.278-0.406,0.726-1.202,1.093l-4.535,1.682l5.227-0.142c0.785,0,0.294-1.069,1.028-1.195l2.969-0.293l-0.022,6.604    L1767.018,510.125z" fill="#E9AA21" fill-rule="evenodd"/><path clip-rule="evenodd" d="M1787.961,489.036c0.785,0,0.298-1.071,1.025-1.194l-0.516-1.434    c-0.971,0.276-0.4,0.719-1.197,1.088L1787.961,489.036z" fill="#FCB959" fill-rule="evenodd"/><path clip-rule="evenodd" d="M1801.091,489.399c-7.435,14.299-17.396,11.915-18.626,18.774    c-3.894-3.09-2.228-9.543,0.291-12.375L1801.091,489.399z" fill="#FCB959" fill-rule="evenodd"/><path clip-rule="evenodd" d="M1803.268,501.714c-2.546-3.084-4.295-6.621-2.177-12.315    c-7.435,14.299-17.396,11.915-18.626,18.774C1786.678,502.479,1799.406,502.033,1803.268,501.714" fill="#E9AA21" fill-rule="evenodd"/><path clip-rule="evenodd" d="M1782.647,523.998c-4.385-6.417-4.005-13.021-0.117-14.843    c6.913-2.477,15.816-5.191,20.738-7.441C1799.77,515.195,1784.197,516.418,1782.647,523.998" fill="#FCB959" fill-rule="evenodd"/><path clip-rule="evenodd" d="M1803.268,501.714c-3.498,13.48-19.071,14.704-20.621,22.284    c3.264-4.363,10.768-7.236,25.029-7.718C1804.543,512.262,1802.326,507.776,1803.268,501.714" fill="#E9AA21" fill-rule="evenodd"/><path clip-rule="evenodd" d="M1773.809,507.667c-6.039,2.254-11.388,4.119-16.124,5.65    c-2.149,2.206-4.824,8.219-0.813,13.352C1756.126,520.759,1768.811,518.525,1773.809,507.667" fill="#FCB959" fill-rule="evenodd"/><path clip-rule="evenodd" d="M1756.871,526.669c-0.745-5.91,11.939-8.145,16.938-19.002    c-0.218,2.628-1.239,8.308,3.531,13.031C1769.997,521.18,1760.393,522.237,1756.871,526.669" fill="#E9AA21" fill-rule="evenodd"/><path clip-rule="evenodd" d="M1761.827,505.433c0.785,0,0.294-1.069,1.028-1.195l-0.518-1.438    c-0.971,0.278-0.406,0.726-1.202,1.093L1761.827,505.433z" fill="#FCB959" fill-rule="evenodd"/><path clip-rule="evenodd" d="M1754.86,514.121c-5.236,3.753-14.703,10.814-19.689,22.647    c3.26-0.351,6.551-0.356,11.27,0.646C1742.733,534.837,1742.001,531.972,1754.86,514.121" fill="#FCB959" fill-rule="evenodd"/><path clip-rule="evenodd" d="M1750.266,538.189l-3.826-0.774    c-3.707-2.577-4.438-5.442,8.42-23.293C1752.21,518.842,1748.008,527.27,1750.266,538.189" fill="#E9AA21" fill-rule="evenodd"/><path clip-rule="evenodd" d="M1810.469,501.242c0.787,0,0.301-1.076,1.03-1.194l-0.518-1.439    c-0.97,0.279-0.401,0.727-1.196,1.094L1810.469,501.242z" fill="#FCB959" fill-rule="evenodd"/><path clip-rule="evenodd" d="M1792.541,570.104l3.015,3.776    c0.422,0.48,0.238,0.967,0.191,1.36c2.119-0.11,4.448,0.559,5.851,2.542c1.493,2.131,2.554,3.266,3.707,4.164    c1.599,1.207,3.168,1.751,4.603,2.13c2.085,0.551,3.681,1.889,4.614,4.749c0.332-0.021,0.584-0.209,1.682,0.11l3.992,1.362    c0.231,0.104,0.584,0.222,0.844,0.52c0.244,0.322,0.342,0.654,0.393,1.004c0.042,0.321,0.042,0.758-0.148,1.152l-3,4.238    c-0.298,0.339-0.796,0.477-0.948,0.484c0.811,1.952,0.956,4.5-0.696,6.631c-2.068,2.681-2.367,3.495-2.862,5.009    c-0.313,1.102-0.461,3.12-0.484,5.456c-0.012,1.838-0.933,3.536-2.964,4.743c0.029,0.133,0.154,0.374,0.17,0.744l0.043,4.304    c0.042,0.551-0.043,1.122-0.289,1.524c-0.388,0.569-0.894,0.8-1.514,0.872c-0.589,0.066-1.129-0.028-1.213-0.06l-4.336-1.419    c-0.432-0.218-0.508-0.473-0.504-0.436c-4.424,3.529-8.043,0.343-11.523,0.232c-3.475,0.11-7.099,3.297-11.522-0.232    c0.007-0.037-0.071,0.218-0.499,0.436l-4.339,1.419c-0.084,0.031-0.625,0.126-1.211,0.06c-0.62-0.072-1.128-0.303-1.516-0.872    c-0.247-0.402-0.333-0.974-0.291-1.524l0.044-4.304c0.015-0.37,0.143-0.611,0.17-0.744c-2.031-1.207-2.949-2.905-2.963-4.743    c-0.024-2.336-0.17-4.354-0.484-5.456c-0.498-1.514-0.795-2.328-2.867-5.009c-1.648-2.131-1.503-4.679-0.693-6.631    c-0.151-0.008-0.652-0.146-0.947-0.484l-3-4.238c-0.19-0.395-0.19-0.831-0.148-1.152c0.053-0.35,0.148-0.682,0.396-1.004    c0.259-0.298,0.61-0.415,0.842-0.52l3.993-1.362c1.098-0.319,1.348-0.132,1.68-0.11c0.937-2.86,2.531-4.198,4.617-4.749    c1.433-0.379,3-0.923,4.602-2.13c1.153-0.898,2.21-2.033,3.705-4.164c1.403-1.983,3.731-2.652,5.849-2.542    c-0.043-0.394-0.227-0.88,0.195-1.36l3.012-3.776c0.515-0.63,1.029-0.646,1.378-0.692    C1791.511,569.458,1792.03,569.474,1792.541,570.104" fill="#1B325E" fill-rule="evenodd"/><path clip-rule="evenodd" d="M1789.983,584.806c-0.998-0.982-2.614-1.679-4.488-0.29    c-0.24,0.18-0.488,0.393-0.739,0.65c-1.525,1.481-1.834,2.845-3.536,3.663c-2.311,1.1-6.479,1.142-5.107,5.531    c0.465,1.287,0.499,1.093-0.76,0.851c-2.169-0.534-4.049-1.737-4.209-4.044c-0.063-2.2,0.929-3.876,2.825-4.511    c1.202-0.4,2.538-0.503,4.957-2.182c2.875-1.991,3.308-4.517,5.503-5.517c1.312-0.536,2.587-0.532,3.82,0.023    c2.093,0.955,2.487,3.134,2.302,5.733C1790.531,585.407,1790.19,585.042,1789.983,584.806" fill="#E31F26" fill-rule="evenodd"/><path clip-rule="evenodd" d="M1790.513,596.652l0.018-7.552    c0.115-1.651-0.557-2.942-2.093-3.324c-0.647-0.162-1.284-0.132-1.878,0.215c-0.799,0.468-1.382,1.354-2.119,2.224    c-0.755,0.865-1.526,1.692-2.525,2.098c-0.813,0.332-1.825,0.539-2.624,0.97c-0.938,0.502-1.653,1.238-1.626,2.588    c0,0.734,0.331,1.46,0.938,1.991c0.641,0.541,1.341,0.688,2.15,0.952l6.453,2.087c0.5,0.139,0.688,0.042,0.906-0.34    c0.695-1.142,1.366-1.236,1.986-1.336C1790.422,597.216,1790.527,596.9,1790.513,596.652" fill="#E31F26" fill-rule="evenodd"/><path clip-rule="evenodd" d="M1792.758,584.806c0.998-0.982,2.613-1.679,4.488-0.29    c0.242,0.18,0.488,0.393,0.738,0.65c1.523,1.481,1.832,2.845,3.537,3.663c2.311,1.1,6.479,1.142,5.105,5.531    c-0.467,1.287-0.5,1.093,0.761,0.851c2.167-0.534,4.05-1.737,4.21-4.044c0.061-2.2-0.929-3.876-2.827-4.511    c-1.203-0.4-2.54-0.503-4.957-2.182c-2.876-1.991-3.3-4.517-5.503-5.517c-1.313-0.536-2.584-0.532-3.82,0.023    c-2.095,0.955-2.486,3.134-2.302,5.733C1792.207,585.407,1792.549,585.042,1792.758,584.806" fill="#E31F26" fill-rule="evenodd"/><path clip-rule="evenodd" d="M1792.227,596.652l-0.02-7.552    c-0.113-1.651,0.559-2.942,2.094-3.324c0.649-0.162,1.282-0.132,1.879,0.215c0.801,0.468,1.383,1.354,2.117,2.224    c0.762,0.865,1.529,1.692,2.527,2.098c0.816,0.332,1.823,0.539,2.625,0.97c0.938,0.502,1.65,1.238,1.623,2.588    c0,0.734-0.33,1.46-0.937,1.991c-0.64,0.541-1.342,0.688-2.151,0.952l-6.452,2.087c-0.182,0.063-0.356,0.098-0.509,0.067    c-0.088-0.013-0.169-0.047-0.245-0.109c-1.022-1.512-1.4-1.431-2.322-1.642C1792.269,597.107,1792.207,596.904,1792.227,596.652" fill="#E31F26" fill-rule="evenodd"/><path clip-rule="evenodd" d="M1802.113,613.596c1.388,0.203,3.102-0.19,3.795-2.419    c0.088-0.287,0.163-0.607,0.216-0.957c0.354-2.099-0.201-3.382,0.687-5.05c1.214-2.248,4.552-4.745,0.849-7.478    c-1.138-0.767-1.048-0.591,0.114-1.14c2.063-0.848,4.289-0.992,5.786,0.781c1.351,1.738,1.539,3.674,0.381,5.309    c-0.732,1.034-1.748,1.901-2.706,4.691c-1.146,3.3,0.004,5.591-1.181,7.698c-0.742,1.21-1.774,1.956-3.101,2.239    c-2.249,0.464-3.861-1.06-5.241-3.271C1801.321,613.432,1801.804,613.528,1802.113,613.596" fill="#E31F26" fill-rule="evenodd"/><path clip-rule="evenodd" d="M1794.69,604.351l4.445,6.104    c0.884,1.401,2.188,2.043,3.655,1.444c0.615-0.252,1.113-0.65,1.388-1.278c0.367-0.849,0.316-1.914,0.393-3.052    c0.1-1.145,0.233-2.264,0.799-3.181c0.465-0.749,1.151-1.52,1.545-2.334c0.463-0.96,0.602-1.974-0.218-3.045    c-0.432-0.596-1.128-0.984-1.932-1.055c-0.833-0.058-1.491,0.235-2.296,0.501l-6.444,2.131c-0.407,0.12-0.563,0.317-0.541,0.71    c0.13,1.405-0.491,2.029-0.941,2.463C1794.456,603.957,1794.528,604.162,1794.69,604.351" fill="#E31F26" fill-rule="evenodd"/><path clip-rule="evenodd" d="M1780.536,613.596c-1.388,0.203-3.101-0.19-3.798-2.419    c-0.091-0.287-0.162-0.607-0.213-0.957c-0.357-2.099,0.202-3.382-0.688-5.05c-1.215-2.248-4.548-4.745-0.851-7.478    c1.137-0.767,1.047-0.591-0.11-1.14c-2.064-0.848-4.293-0.992-5.786,0.781c-1.349,1.738-1.544,3.674-0.384,5.309    c0.734,1.034,1.753,1.901,2.709,4.691c1.141,3.3-0.006,5.591,1.18,7.698c0.741,1.21,1.771,1.956,3.101,2.239    c2.249,0.464,3.853-1.06,5.241-3.271C1781.326,613.432,1780.839,613.528,1780.536,613.596" fill="#E31F26" fill-rule="evenodd"/><path clip-rule="evenodd" d="M1787.961,604.351l-4.449,6.104    c-0.884,1.401-2.186,2.043-3.654,1.444c-0.613-0.252-1.112-0.65-1.392-1.278c-0.364-0.849-0.311-1.914-0.388-3.052    c-0.099-1.145-0.238-2.264-0.799-3.181c-0.464-0.749-1.155-1.52-1.544-2.334c-0.465-0.96-0.604-1.974,0.212-3.045    c0.437-0.596,1.133-0.984,1.937-1.055c0.834-0.058,1.493,0.235,2.296,0.501l6.439,2.131c0.308,0.089,0.54,0.242,0.592,0.508    c-0.201,1.083,0.262,1.806,0.84,2.565C1788.215,603.893,1788.149,604.129,1787.961,604.351" fill="#E31F26" fill-rule="evenodd"/><path clip-rule="evenodd" d="M1799.873,615.066c-0.226,1.383-1.127,2.898-3.456,2.879    c-0.304,0-0.628-0.027-0.979-0.085c-2.108-0.297-3.159-1.222-5.021-0.88c-2.51,0.474-5.9,2.892-7.382-1.46    c-0.382-1.314-0.24-1.178-1.117-0.24c-1.436,1.709-2.25,3.788-1.019,5.748c1.248,1.813,3.035,2.586,4.944,1.979    c1.212-0.384,2.347-1.089,5.293-1.156c3.49-0.084,5.326,1.7,7.693,1.218c1.374-0.341,2.402-1.1,3.074-2.272    c1.127-2.006,0.161-4.001-1.52-5.989C1799.964,614.263,1799.902,614.754,1799.873,615.066" fill="#E31F26" fill-rule="evenodd"/><path clip-rule="evenodd" d="M1793.324,605.184l4.461,6.091    c1.067,1.268,1.285,2.707,0.271,3.921c-0.433,0.51-0.963,0.86-1.645,0.937c-0.924,0.089-1.919-0.285-3.026-0.556    c-1.12-0.255-2.23-0.461-3.275-0.207c-0.852,0.218-1.795,0.641-2.688,0.767c-1.059,0.148-2.065-0.029-2.838-1.131    c-0.435-0.597-0.597-1.378-0.417-2.165c0.194-0.814,0.679-1.35,1.173-2.036l3.989-5.491c0.188-0.276,0.411-0.45,0.695-0.403    c1.241,0.612,2.22,0.257,2.685,0.043C1792.962,604.787,1793.206,604.999,1793.324,605.184" fill="#E31F26" fill-rule="evenodd"/><path d="M1793.946,601.164c0,1.387-1.123,2.513-2.516,2.513c-1.389,0-2.513-1.126-2.513-2.513    c0-1.391,1.124-2.518,2.513-2.518C1792.823,598.647,1793.946,599.774,1793.946,601.164" fill="#FCBD53"/><path clip-rule="evenodd" d="M1789.028,576.543c-0.293-0.248-0.201-0.325,0.061-0.642    c0.671-0.894,1.353-1.844,2.074-2.991c0.724,1.147,1.405,2.098,2.078,2.991c0.26,0.316,0.349,0.394,0.061,0.642    c-0.814,0.698-1.751,1.575-2.139,3.15C1790.779,578.118,1789.842,577.241,1789.028,576.543" fill="#E31F26" fill-rule="evenodd"/><path clip-rule="evenodd" d="M1813.969,591.514c0.156-0.354,0.251-0.287,0.635-0.13    c1.053,0.378,2.164,0.746,3.47,1.097c-0.88,1.024-1.591,1.958-2.243,2.866c-0.229,0.345-0.27,0.453-0.597,0.248    c-0.909-0.567-2.021-1.206-3.636-1.112C1812.985,593.655,1813.546,592.494,1813.969,591.514" fill="#E31F26" fill-rule="evenodd"/><path clip-rule="evenodd" d="M1767.298,595.578c-0.327,0.198-0.372,0.089-0.591-0.258    c-0.642-0.919-1.339-1.86-2.204-2.903c1.317-0.33,2.437-0.679,3.491-1.045c0.381-0.146,0.48-0.213,0.629,0.142    c0.412,0.992,0.952,2.154,2.33,3.007C1769.338,594.399,1768.216,595.024,1767.298,595.578" fill="#E31F26" fill-rule="evenodd"/><path clip-rule="evenodd" d="M1807.431,619.399c0.383,0.025,0.35,0.137,0.331,0.549    c0,1.118,0.029,2.287,0.143,3.643c-1.268-0.488-2.387-0.838-3.456-1.153c-0.403-0.097-0.521-0.097-0.437-0.472    c0.228-1.051,0.455-2.309-0.18-3.804C1805.084,619.192,1806.362,619.323,1807.431,619.399" fill="#E31F26" fill-rule="evenodd"/><path clip-rule="evenodd" d="M1778.767,621.88c0.087,0.373-0.029,0.38-0.429,0.481    c-1.065,0.338-2.178,0.711-3.431,1.224c0.083-1.354,0.083-2.524,0.06-3.642c-0.021-0.412-0.056-0.525,0.322-0.559    c1.069-0.097,2.344-0.252,3.577-1.307C1778.259,619.58,1778.513,620.838,1778.767,621.88" fill="#E31F26" fill-rule="evenodd"/></g></g><g><g opacity="0.5"><radialGradient cx="1792.2317" cy="483.4905" gradientUnits="userSpaceOnUse" id="SVGID_5_" r="239.9682"><stop offset="0.2808" style="stop-color:#FFFFFF"/><stop offset="0.7833" style="stop-color:#FFFFFF;stop-opacity:0"/></radialGradient><path d="M1792.941,483.575c82.002-76.144,162.734-19.083,213.406,37.312    c-14.641-105.671-105.516-187.307-215.148-187.307c-103.098,0-189.578,72.191-211.711,168.666    C1627.349,534.047,1707.874,562.563,1792.941,483.575z" fill="url(#SVGID_5_)"/></g><radialGradient cx="1791.1965" cy="550.8293" gradientUnits="userSpaceOnUse" id="SVGID_6_" r="218.791"><stop offset="0.3218" style="stop-color:#FFFFFF;stop-opacity:0"/><stop offset="1" style="stop-color:#FFFFFF"/></radialGradient><path d="M1572.404,550.821c0,120.649,98.152,218.798,218.795,218.798   c120.65,0,218.791-98.148,218.791-218.798c0-120.638-98.141-218.78-218.791-218.78   C1670.556,332.04,1572.404,430.183,1572.404,550.821z" fill="url(#SVGID_6_)"/></g></svg>