<?xml version="1.0" ?><!DOCTYPE svg  PUBLIC '-//W3C//DTD SVG 1.1//EN'  'http://www.w3.org/Graphics/SVG/1.1/DTD/svg11.dtd'><svg enable-background="new 2090.25 294.826 511.999 512" height="512px" id="Layer_1" version="1.1" viewBox="2090.25 294.826 511.999 512" width="511.999px" xml:space="preserve" xmlns="http://www.w3.org/2000/svg" xmlns:xlink="http://www.w3.org/1999/xlink"><linearGradient gradientTransform="matrix(0 -1 1 0 4.882813e-004 82.6528)" gradientUnits="userSpaceOnUse" id="SVGID_1_" x1="-724.1736" x2="-212.1736" y1="2346.2502" y2="2346.2502"><stop offset="0" style="stop-color:#FFFFFF"/><stop offset="0.5" style="stop-color:#CCCCCC"/><stop offset="1" style="stop-color:#999999"/></linearGradient><path d="M2602.25,550.821c0,141.163-114.836,256.006-255.998,256.006  c-141.16,0-256.002-114.843-256.002-256.006c0-141.157,114.842-255.994,256.002-255.994  C2487.414,294.826,2602.25,409.663,2602.25,550.821z" fill="url(#SVGID_1_)"/><g><linearGradient gradientUnits="userSpaceOnUse" id="SVGID_2_" x1="2346.2502" x2="2346.2502" y1="797.5276" y2="304.1252"><stop offset="0" style="stop-color:#999999"/><stop offset="0.5" style="stop-color:#CCCCCC"/><stop offset="1" style="stop-color:#FFFFFF"/></linearGradient><path d="M2346.252,797.528c-136.035,0-246.703-110.672-246.703-246.707   c0-136.029,110.668-246.695,246.703-246.695c136.027,0,246.699,110.666,246.699,246.695   C2592.951,686.856,2482.28,797.528,2346.252,797.528z M2346.252,322.747c-125.766,0-228.082,102.313-228.082,228.073   c0,125.766,102.316,228.085,228.082,228.085c125.758,0,228.078-102.319,228.078-228.085   C2574.33,425.06,2472.01,322.747,2346.252,322.747z" fill="url(#SVGID_2_)"/></g><g><defs><path d="M2128.073,550.823c0,120.32,97.863,218.18,218.182,218.18c120.301,0,218.18-97.859,218.18-218.18    c0-120.303-97.879-218.163-218.18-218.163C2225.936,332.66,2128.073,430.521,2128.073,550.823z" id="SVGID_51_"/></defs><clipPath id="SVGID_4_"><use overflow="visible" xlink:href="#SVGID_51_"/></clipPath><rect clip-path="url(#SVGID_4_)" fill="#FF0000" height="512" width="512" x="2090.25" y="294.826"/><g clip-path="url(#SVGID_4_)"><path d="M2489.823,617.74c0-13.364-10.614-27.197-25.823-27.197c-10.982,0-16.345,4.789-20.27,9.951    c-6.563,8.622-48.984,50.692-97.535,50.692c-48.547,0-90.956-42.07-97.514-50.692c-3.928-5.162-9.287-9.951-20.274-9.951    c-15.206,0-25.819,13.833-25.819,27.197c0,23.365,36.719,68.1,94.982,85.342c1.691,4.77,6.376,15.028,18.306,15.028    c9.646,0,15.101-7.089,15.542-7.089c0.773,0,4.093,10.82,15.553,10.82c10.995,0,14.606-11.744,15.367-11.744    c0.591,0,4.277,8.072,16.256,8.072c11.002,0,16.239-10.984,17.83-15.573C2453.765,685.02,2489.823,640.895,2489.823,617.74z" fill="#231F20"/><path d="M2371.169,708.273c0.395,0.607,1.164,1.494,2.743,1.494c0.882,0,1.234-0.466,2.063-0.466    c0.831,0,1.131,0.797,1.131,1.585c0,0.785-0.715,1.917-2.972,1.917c-2.689,0-5.61-2.826-6.539-4.045    c-1.132,0.143-2.27,0.275-3.413,0.397c0.996,1.585,4.995,6.841,14.273,6.841c9.376,0,14.299-9.376,15.236-12.586    C2386.498,705.484,2378.98,707.129,2371.169,708.273z" fill="#FFDB1D"/><path d="M2346.19,707.667c85.572,0,141.602-61.915,141.602-89.852c0-16.731-14.553-25.208-24.324-25.208    c-10.207,0-11.947,2.761-20.588,11.916c-18.184,19.264-52.58,48.523-96.684,48.523c-44.099,0-78.5-29.26-96.678-48.523    c-8.641-9.155-10.387-11.916-20.592-11.916c-9.769,0-24.322,8.477-24.322,25.208    C2204.604,645.752,2260.619,707.667,2346.19,707.667z" fill="#FFDB1D"/><path d="M2346.196,704.154c87.838,0,138.412-63.757,138.412-86.512c0-10.76-8.648-21.532-20.725-21.532    c-9.805,0-12.224,4.31-17.359,9.74c-9.387,9.926-48.197,50.49-100.317,50.49s-90.939-40.564-100.329-50.49    c-5.133-5.431-7.551-9.74-17.355-9.74c-12.077,0-20.726,10.772-20.726,21.532C2207.796,640.397,2258.361,704.154,2346.196,704.154    z" fill="#EE3748"/><g><path d="M2276.883,666.796c-0.986,1.756-2.279,2.885-3.953,3.448c-1.638,0.546-3.164,0.425-4.575-0.367     c-1.574-0.884-2.53-1.892-2.837-2.993c-0.396-1.403,0.085-3.323,1.423-5.702l9.539-16.98l-6.11-3.432l-10.361,18.435     c-1.596,2.842-1.895,5.664-0.891,8.378c0.996,2.682,3.278,5.042,6.793,7.014c2.23,1.255,4.399,1.887,6.449,1.887     c1.373,0,2.723-0.283,4.002-0.849c2.66-1.172,4.982-3.497,6.899-6.913l8.843-15.738l-5.668-3.186L2276.883,666.796z" fill="#FFDB1D"/><polygon fill="#FFDB1D" points="2315.727,680.312 2306.485,657.314 2301.142,655.908 2293.256,685.937 2298.982,687.439      2304.099,667.948 2313.697,691.302 2318.423,692.545 2326.309,662.524 2320.755,661.063    "/><rect fill="#FFDB1D" height="31.041" transform="matrix(-0.9994 -0.0347 0.0347 -0.9994 4654.6152 1440.7202)" width="7.009" x="2336.302" y="664.457"/><polygon fill="#FFDB1D" points="2374.883,662.176 2350.633,665.118 2351.254,670.236 2359.936,669.187 2363.05,694.881      2370.01,694.037 2366.896,668.341 2375.47,667.301    "/><polygon fill="#FFDB1D" points="2395.677,682.257 2392.962,674.115 2402.055,671.086 2400.424,666.19 2391.331,669.22      2389.123,662.597 2398.573,659.444 2396.942,654.551 2380.84,659.917 2390.656,689.367 2407.961,683.599 2406.332,678.705    "/><path d="M2435.754,649.857c-2.459-4.108-5.723-6.535-9.697-7.213c-3.811-0.652-7.973,0.352-12.371,2.982     l-9.514,5.692l15.943,26.638l9.161-5.484c4.192-2.509,6.991-5.669,8.321-9.39     C2439.102,658.868,2438.481,654.419,2435.754,649.857z M2423.48,669.928l-10.562-17.652l2.912-1.744     c2.613-1.563,5.021-2.198,7.136-1.889c2.467,0.366,4.629,2.072,6.422,5.07c1.771,2.957,2.455,5.71,2.026,8.18     c-0.425,2.465-1.797,4.361-4.189,5.797L2423.48,669.928z" fill="#FFDB1D"/></g><path d="M2492.327,477.657c0,0,1.364,1.585,4.938,1.585c5.198,0,6.928-4.125,6.928-7.038    c0-3.797-2.837-6.119-3.387-6.818c-0.556-0.701-17.805-18.574-18.428-19.313c-0.628-0.736-2.801-3.427-6.34-3.427    c-3.537,0-7.296,4.129-7.296,11.314c0,0.764-0.226,1.727-0.556,2.73c-1.965-2.64-3.604-4.864-4.857-6.416    c-4.449-5.508-25.329-32.244-63.77-46.864c-0.275-7.567-6.09-19.427-16.945-19.427c-9.277,0-18.858,6.754-23.109,10.384    c-0.271-0.025-0.553-0.041-0.823-0.062c-1.726-4.765-7.437-14.496-11.639-14.496c-4.7,0-11.599,10.29-13.616,14.524    c-0.33,0.027-0.666,0.049-0.998,0.077c-4.223-3.619-13.845-10.428-23.16-10.428c-10.953,0-16.779,12.08-16.955,19.638    c-38.098,14.662-58.814,41.17-63.24,46.653c-1.26,1.561-2.909,3.799-4.885,6.456c-0.34-1.017-0.571-1.997-0.571-2.771    c0-7.186-3.759-11.314-7.294-11.314c-3.541,0-5.717,2.69-6.342,3.427c-0.625,0.738-17.873,18.611-18.428,19.313    c-0.553,0.699-3.499,3.905-3.391,6.818c0.111,2.911,1.732,7.038,6.931,7.038c3.574,0,4.938-1.585,4.938-1.585s0.166,4.141,0,6.839    c-3.521,3.129-7.225,5.965-11.058,8.234c0,28.01,12.897,44.866,29.704,44.866c20.787,0,36.898-23.443,40.32-28.576    c1.527-2.293,8.962-13.853,21.474-25.793v133.188l65.564,42.271l65.243-42.565V482.613c12.9,12.154,20.566,24.076,22.123,26.408    c3.42,5.133,19.532,28.576,40.318,28.576c16.808,0,29.705-16.856,29.705-44.866c-3.848-2.278-7.568-5.129-11.103-8.272    C2492.163,481.758,2492.327,477.657,2492.327,477.657z M2293.498,472.316c13.916-10.125,31.681-18.354,52.708-18.354    c21.026,0,38.79,8.229,52.703,18.354H2293.498z" fill="#231F20"/><path d="M2309.465,386.098c-4.642,0-7.028,2.975-7.028,4.693c0,1.721,0.714,2.53,1.893,2.53    c1.181,0,1.156-0.687,1.156-1.621c0-0.934,1.081-1.818,2.753-1.818c1.67,0,2.75,1.794,2.75,3.146c0,1.351-1.694,4.202-6.362,4.202    c-2.313,0-5.962-1.669-5.964-5.642c-2.735,3.604-3.945,8.188-4.113,11.196c10.338-3.785,21.913-6.682,34.745-8.068    C2326.262,392.15,2317.737,386.098,2309.465,386.098z" fill="#FFDB1D"/><path d="M2393.221,391.582v0.003c0,3.973-3.65,5.645-5.96,5.645c-4.668,0-6.364-2.852-6.364-4.202    c0-1.352,1.079-3.146,2.751-3.146s2.753,0.885,2.753,1.818c0,0.935-0.025,1.621,1.153,1.621c1.183,0,1.893-0.81,1.893-2.53    c0-1.719-2.382-4.693-7.025-4.693c-8.212,0-16.681,5.971-19.768,8.565c12.797,1.343,24.342,4.19,34.669,7.923    C2397.116,399.578,2395.902,395.109,2393.221,391.582z" fill="#FFDB1D"/><path d="M2346.711,382.07c-1.078,0-2.377,0.906-3.695,2.235c-0.619,0.626-0.551,1.218,0.804,1.218    c1.364,0,2.544,0.57,2.544,2.319c0,1.732-2.617,4.516-5.971,4.516c-1.896,0-2.438-0.459-2.789-0.836    c-0.682,1.118-1.205,2.059-1.479,2.616c3.285-0.211,6.643-0.325,10.082-0.325c3.39,0,6.704,0.107,9.944,0.311    C2355.353,391.806,2350.287,382.07,2346.711,382.07z" fill="#FFDB1D"/><path d="M2208.485,450.644c0.371,0,0.121,4.619,5.578,6.929c0.498,0.21-0.123,0.761-0.395,1.129    c-0.271,0.369-6.731,9.829-13.367,15.996c-0.927,0.863-2.608,2.426-5.097,2.426c-2.487,0-4.719-1.694-4.719-4.957    c0-3.354,1.772-4.772,2.764-5.748C2194.245,465.442,2207.33,452.063,2208.485,450.644z" fill="#FFDB1D"/><path d="M2483.875,450.644c-0.366,0-0.12,4.619-5.576,6.929c-0.496,0.21,0.123,0.761,0.393,1.129    c0.271,0.369,6.733,9.829,13.367,15.996c0.929,0.863,2.61,2.426,5.099,2.426c2.487,0,4.718-1.694,4.718-4.957    c0-3.354-1.77-4.772-2.766-5.748C2498.115,465.442,2485.032,452.063,2483.875,450.644z" fill="#FFDB1D"/><path d="M2490.514,482.807c-0.051-2.917,0.119-6.219,0.119-6.219c-9.178-7.813-15.849-19.408-15.849-19.631    c0-0.219,6.819-2.406,6.819-7.457c0-2.395-2.544-4.976-5.002-4.976c-2.452,0-6.189,2.593-6.189,11.056    c0,0.949,0.154,3.053,0.259,4.437C2475.836,466.863,2482.675,475.482,2490.514,482.807z" fill="#FFDB1D"/><path d="M2201.848,482.847c7.833-7.311,14.666-15.917,19.834-22.769c0.111-1.381,0.268-3.534,0.268-4.498    c0-8.463-3.737-11.056-6.192-11.056c-2.457,0-4.999,2.581-4.999,4.976c0,5.051,6.816,7.238,6.816,7.457    c0,0.223-6.668,11.818-15.844,19.631C2201.731,476.588,2201.901,479.918,2201.848,482.847z" fill="#FFDB1D"/><path d="M2326.246,708.932c-0.959,1.102-3.89,3.729-6.363,3.729c-1.99,0-3.246-0.996-3.246-1.935    c0-0.939,0.813-1.511,1.439-1.511s1.088,0.496,2.045,0.496c1.342,0,1.955-0.657,2.33-1.26c-7.627-1.061-14.975-2.604-22.017-4.556    c1.503,3.938,5.502,12.174,15.652,12.174c5.298,0,11.25-3.232,13.384-6.787C2328.391,709.178,2327.318,709.058,2326.246,708.932z" fill="#FFDB1D"/><path d="M2357.059,709.745c-0.703,1.525-3.234,5.956-6.384,5.956c-1.032,0-2.542-0.755-2.542-2.102    c0-1.344,1.287-2.229,2.966-2.229c2.527,0,3.333-0.896,3.624-1.495c-2.807,0.141-5.643,0.222-8.52,0.222    c-4.368,0-8.66-0.17-12.88-0.485c1.021,2.227,5.325,10.24,13.538,10.24c8.153,0,12.189-7.727,13.226-10.321    C2359.081,709.613,2358.072,709.681,2357.059,709.745z" fill="#FFDB1D"/><circle cx="2207.736" cy="565.556" fill="#231F20" r="30.222"/><circle cx="2207.737" cy="565.556" fill="#FFDB1D" r="28.414"/><circle cx="2207.736" cy="565.556" fill="#EE3748" r="24.874"/><circle cx="2484.764" cy="565.556" fill="#231F20" r="30.222"/><circle cx="2484.765" cy="565.556" fill="#FFDB1D" r="28.413"/><circle cx="2484.763" cy="565.556" fill="#EE3748" r="24.876"/><path d="M2401.752,474.451h-111.096c-2.902,2.244-5.615,4.556-8.145,6.872V615.16l63.487,40.736l63.318-40.71    V480.794C2406.955,478.656,2404.431,476.526,2401.752,474.451z" fill="#FFDB1D"/><rect fill="#EE3748" height="8.009" width="119.505" x="2286.452" y="514.648"/><path d="M2286.452,477.854V510.2h0.998h17.541l-2.874-8.552l13.563,3.319h13.637v-3.319h-7.001v-16.066h6.56    l2.211-4.13l2.212,4.13h6.487v16.066h-6.928v3.319h17.1v-3.319h-7.004v-16.066h6.375l2.359-4.13l2.25,4.13h6.374v16.066h-6.893    v3.319h16.771v-3.319h-7.004v-16.066h6.524l2.21-4.13l2.214,4.13h6.411v16.066h-7.002v3.319h8.438v5.232h23.976v-32.347H2286.452z     M2320.865,489.784l-4.815,13.364l-9.189-2.212l14.005-14.89V489.784z" fill="#EE3748"/><path d="M2384.822,531.427l-4.447,7.889l1.866,2.727v8.184h-4.888v-8.184l1.917-2.727l-4.597-7.889l-4.372,7.889    l1.844,2.727v8.184h-4.867v-8.184l1.818-2.727l-4.473-7.889l-4.475,7.889l1.839,2.727v15.775h9.642c0,0,0,1.739,0,4.655    c-0.131-0.006-0.26-0.012-0.39-0.012c-7.154,0-10.743,4.323-13.617,4.323c-0.614,0-1.474-0.073-1.474-0.909    c0-2.064,5.675-3.244,5.675-5.305c0-0.874-6.894-5.445-6.894-5.777c0-1.521,0.777-2.872,0.777-3.88c0-1.01,0-4.965,0-6.07    c0-5.38,4.938-11.584,5.639-11.816h-6.746l-3.943-8.894l-5.011,8.894h-4.755l-4.742-8.894l-4.178,8.894h-6.831    c0,0,10.517,15.233,10.517,20.589c0,4.238-6.023,3.759-6.023,10.958c0,5.996,4.918,8.085,4.918,11.131    c0,0.762-0.344,1.375-0.516,1.866c-0.173,0.492-3.34,6.856-3.565,7.249c-0.218,0.393-0.833,1.546-2.089,1.546    c-1.25,0-3.152-1.719-3.152-17.592c0-4.341,0.35-5.005,0.846-5.944c0.498-0.938,4.57-7.938,4.57-8.772s-5.712,0.775-10.062-15.698    c-0.509-1.932-0.37-3.466-1.103-3.466c-0.924,0-1.638,3.097-3.11,3.097c-1.868,0-2.898-1.895-5.481-1.895    c-3.427,0-3.684,10.149-8.254,10.149c-2.102,0-4.15-1.867-6.315-1.867c-1.352,0,2.605,1.646,3.64,13.291    c0.094,1.081,0.077,1.364,0.409,1.364c1.11,0,5.955-7.481,13.361-7.481c1.682,0,3.401,0.739,3.401,2.041    c0,3.412-5.529,5.258-5.529,6.656c0,1.893,4.667,0.849,4.928,4.925c0.129,2.045,0.809,27.948,0.848,29.718    c0.039,1.771,0.111,11.278,7.188,11.278h5.527c0,7.963-1.437,13.416-1.437,18.243c0,6.633,6.337,8.993,6.337,15.294    c0,2.261-0.589,3.613-0.589,4.916c0,1.301,0.443,3.5,3.931,3.5c4.876,0,13.06-3.885,13.06-7.752c0-2.617-6.966-9.435-6.966-13.378    c0-2.617,6.535-3.452,6.535-7.188c0-3.058-7.714-9.252-7.566-17.026c0-0.57,1.123,0.682,1.917,1.605    c0.791,0.919,18.721,19.99,19.2,20.435c0.479,0.442,1.953,1.806,2.36,1.806c0.97,0,1.73-0.676,1.73-2.948    c0-3.134-1.068-2.322-1.068-9.14c0-5.713,1.068-6.708,1.068-10.246s-1.524-4.312-3.981-4.312c-1.083,0-2.727,0.05-2.727-1.769    c0-1.819,1.153-4.153,1.153-6.167c0-0.908-0.44-1.893-2.308-1.893c-1.819,0-3,2.457-5.06,2.457c-0.616,0-1.402,0.012-1.402-0.553    c0-1.512,4.643-8.733,5.307-8.733c1.03,0,11.993,4.961,11.993,6.263c0,0,0.018,0,0.049,0c0,17.738,0,36.332,0,36.507    c0,1.104,1.029,1.95,3.038,1.95c2.01,0,3.078-0.736,3.078-1.878c0-0.611,0-20.116,0-38.13c1.461-1.183,2.823-3.129,2.823-6.161    c0-1.253,0.058-2.475-0.727-3.348c1.652-0.735,2.179-2.375,2.179-4.199c0-3.205-1.547-6.934-4.275-9.345c0-4.406,0-7.163,0-7.163    h9.803v-15.775l1.646-2.727L2384.822,531.427z M2340.031,544.303c-0.787,0-1.941-0.99-1.941-2.427    c0-2.972-0.528-3.445-0.196-3.445c1.423,0,3.512,3.146,3.512,4.299C2341.405,543.886,2340.399,544.303,2340.031,544.303z     M2344.502,559.708c-0.49,0-2.925-6.461-2.925-6.978h5.849C2347.426,553.223,2344.993,559.708,2344.502,559.708z M2350.35,541.876    c0,1.437-1.154,2.427-1.941,2.427c-0.364,0-1.375-0.417-1.375-1.573c0-1.153,2.09-4.299,3.513-4.299    C2350.88,538.431,2350.35,538.905,2350.35,541.876z M2371.629,577.753c-0.146,0.014-0.298,0.02-0.462,0.02    c-6.582,0-9.295-4.822-9.295-5.388c0-0.564,1.647-1.725,5.036-1.725c1.898,0,3.595,0.876,4.721,1.65    C2371.629,574.032,2371.629,575.857,2371.629,577.753z" fill="#EE3748"/><path d="M2346.196,451.861c49.912,0,80.132,43.895,88.832,55.832c7.499,10.299,20.415,27.642,37.736,27.642    c18.428,0,28.402-17.245,28.402-41.423c-14.298-8.797-25.803-24.202-33.268-34.347c-17.002-23.108-56.084-63.639-121.703-63.639    c-65.615,0-104.688,40.53-121.692,63.639c-7.463,10.145-18.968,25.55-33.266,34.347c0,24.178,9.975,41.423,28.402,41.423    c17.319,0,30.237-17.343,37.736-27.642C2266.076,495.755,2296.288,451.861,2346.196,451.861z" fill="#FFDB1D"/><path d="M2346.206,448.261c52.367,0,82.923,45.109,92.655,58.573c9.728,13.465,21.32,25.257,33.83,25.257    c18.721,0,24.912-21.817,24.912-36.264c-7.96-5.234-18.94-15.332-30.292-31.252c-11.355-15.921-49.838-65.063-121.116-65.063    c-71.274,0-109.752,49.142-121.104,65.063c-11.351,15.92-22.332,26.018-30.295,31.252c0,14.446,6.194,36.264,24.916,36.264    c12.508,0,24.103-11.792,33.83-25.257C2263.275,493.37,2293.839,448.261,2346.206,448.261z" fill="#EE3748"/><g><path d="M2200.739,543.734c-0.563,0.458-1.395,1.417-1.395,2.021c0,0.514,0.443,1.044,0.82,1.4     c2.193,2.098,8.007,3.898,11.949,3.712c4.373-0.21,7.01-2.862,7.047-3.665c0-1.109-0.735-2.168-0.769-2.213     c-3.167-1.72-6.798-2.696-10.654-2.696c-2.521,0-4.942,0.421-7.204,1.19L2200.739,543.734z" fill="#FFDB1D"/><path d="M2191.909,560.643c1.765-6.189,4.855-10.322,6.35-12.063c-0.843-0.896-1.273-1.846-1.273-2.825     c0-0.264,0.038-0.519,0.104-0.77c-3.974,2.155-7.215,5.479-9.276,9.509C2187.958,554.804,2189.29,557.567,2191.909,560.643z" fill="#FFDB1D"/><path d="M2221.518,547.203c0,2.198-3.149,4.947-7.363,5.78c-2.457,4.34-4.979,10.72-5.215,16.525     c0.296,0.013,0.592,0.027,0.896,0.027c13.973,0,18.072-11.856,18.56-13.459c-1.489-3.579-3.878-6.685-6.888-9.036     C2221.509,547.094,2221.518,547.147,2221.518,547.203z" fill="#FFDB1D"/><path d="M2206.558,570.371c0-6.85,2.94-13.598,4.78-17.141c-3.461-0.053-8.191-1.255-11.248-3.186     c-2.465,2.761-7.132,10.056-7.132,20.081c0,5.245,1.007,9.942,1.765,12.724c3.668,2.629,8.157,4.179,13.015,4.179     c0.679,0,1.351-0.034,2.013-0.093C2208.399,584.121,2206.558,578.749,2206.558,570.371z" fill="#FFDB1D"/><path d="M2209.836,571.896c-0.305,0-0.601-0.017-0.896-0.028c0.223,7.821,2.166,12.591,3.283,14.712     c10.206-2.076,17.881-11.102,17.881-21.92c0-1.751-0.207-3.455-0.589-5.094C2227.335,564.064,2221.813,571.896,2209.836,571.896z     " fill="#FFDB1D"/><path d="M2190.596,570.126c0-2.419,0.249-4.653,0.65-6.712c-2.197-2.334-3.721-4.634-4.618-6.16     c-0.812,2.32-1.259,4.811-1.259,7.405c0,6.044,2.398,11.525,6.293,15.549C2191.094,577.444,2190.596,573.94,2190.596,570.126z" fill="#FFDB1D"/></g><g><path d="M2464.356,555.899c0.035,0.138,3.7,13.638,18.609,13.638c0.305,0,0.6-0.015,0.897-0.027     c-0.235-5.806-2.757-12.186-5.214-16.525c-4.216-0.833-7.366-3.582-7.366-5.78c0-0.142,0.017-0.277,0.028-0.413     c-3.123,2.356-5.612,5.51-7.157,9.161L2464.356,555.899z" fill="#FFDB1D"/><path d="M2474.414,544.981c-0.008,0.013-0.771,1.093-0.771,2.221c0.037,0.803,2.674,3.455,7.046,3.665     c3.942,0.187,9.754-1.614,11.95-3.712c0.374-0.356,0.82-0.887,0.82-1.4c0-0.604-0.834-1.563-1.393-2.021l0.137-0.17     c-2.327-0.822-4.831-1.271-7.44-1.271c-3.785,0-7.345,0.942-10.471,2.602L2474.414,544.981z" fill="#FFDB1D"/><path d="M2495.815,545.754c0,0.979-0.43,1.929-1.271,2.825c1.496,1.741,4.583,5.874,6.349,12.063     c2.226-2.614,3.521-4.999,3.948-5.85c-1.993-4.043-5.172-7.4-9.084-9.61C2495.79,545.369,2495.815,545.56,2495.815,545.754z" fill="#FFDB1D"/><path d="M2483.863,571.867c-0.298,0.012-0.593,0.028-0.897,0.028c-12.373,0-17.854-8.358-19.88-12.759     c-0.449,1.768-0.688,3.618-0.688,5.522c0,10.916,7.814,19.998,18.156,21.97C2481.666,584.531,2483.636,579.747,2483.863,571.867z     " fill="#FFDB1D"/><path d="M2499.845,570.126c0-10.025-4.668-17.32-7.134-20.081c-3.058,1.931-7.786,3.133-11.245,3.186     c1.836,3.543,4.778,10.291,4.778,17.141c0,8.4-1.852,13.778-3.204,16.587c0.569,0.042,1.142,0.07,1.723,0.07     c5.021,0,9.655-1.653,13.386-4.446C2498.898,579.776,2499.845,575.211,2499.845,570.126z" fill="#FFDB1D"/><path d="M2501.555,563.414c0.402,2.059,0.652,4.293,0.652,6.712c0,3.633-0.454,6.981-0.986,9.681     c3.668-3.983,5.91-9.303,5.91-15.147c0-2.474-0.406-4.854-1.148-7.08C2505.066,559.097,2503.6,561.242,2501.555,563.414z" fill="#FFDB1D"/></g><g><polygon fill="#FFDB1D" points="2229.858,473.544 2239.967,494.886 2217.887,488.172 2212.496,494.767 2236.188,514.146      2240,509.486 2223.843,496.274 2245.305,503.001 2247.779,499.975 2237.435,479.163 2253.834,492.574 2258.297,487.116      2234.606,467.735    "/><path d="M2246.851,454.871l13.668,30.711l4.203-4.744l-3.884-8.032l6.712-7.557l7.985,3.423l5.133-5.784     l-30.267-12.012L2246.851,454.871z M2263.076,463.237l-4.475,5.043l-4.524-9.108L2263.076,463.237z" fill="#FFDB1D"/><polygon fill="#FFDB1D" points="2284.773,424.215 2295.413,440.72 2272.082,432.372 2267.36,435.408 2283.914,461.156      2288.977,457.901 2278.218,441.173 2302.059,449.488 2306.237,446.805 2289.679,421.057    "/><path d="M2330.074,433.563c-0.511,0.575-1.227,1.162-2.13,1.738c-1.085,0.698-2.185,1.205-3.267,1.504     c-3.308,0.919-6.113,0.649-8.364-0.81c-2.007-1.308-3.435-3.435-4.238-6.327c-0.806-2.896-0.672-5.559,0.396-7.91     c1.169-2.57,3.24-4.234,6.332-5.097c1.15-0.32,2.441-0.458,3.921-0.417c1.196,0.028,2.152,0.161,2.847,0.401l0.579,0.196     l1.526-5.038l-0.577-0.166c-1.324-0.381-2.909-0.575-4.712-0.575l-0.283,0.004c-1.918,0.02-3.871,0.304-5.804,0.842     c-4.416,1.227-7.819,3.733-10.12,7.451c-2.311,3.73-2.879,7.787-1.69,12.058c1.23,4.421,3.963,7.662,8.129,9.637     c2.394,1.136,4.929,1.714,7.522,1.714c1.731,0,3.526-0.255,5.338-0.761c1.764-0.49,3.255-1.077,4.43-1.743     c1.178-0.666,2.416-1.653,3.68-2.929l0.391-0.392l-3.464-3.881L2330.074,433.563z" fill="#FFDB1D"/><polygon fill="#FFDB1D" points="2355.815,421.388 2343.822,421.205 2344,409.714 2336.871,409.605 2336.405,440.209      2343.532,440.319 2343.74,426.48 2355.734,426.664 2355.521,440.503 2362.65,440.611 2363.119,410.006 2355.989,409.897    "/><polygon fill="#FFDB1D" points="2388.673,433.825 2390.286,428.985 2381.008,425.891 2383.18,419.378 2392.827,422.594      2394.441,417.754 2378.026,412.285 2368.35,441.323 2385.99,447.203 2387.603,442.364 2376.73,438.739 2379.395,430.733    "/><path d="M2408.977,431.165c0.807-0.108,1.705,0.109,2.697,0.645c0.914,0.496,1.731,1.251,2.416,2.247     c0.219,0.321,0.474,0.778,0.789,1.402l0.252,0.5l4.639-2.024l-0.203-0.528c-0.367-0.94-1.031-1.978-1.971-3.078     c-1.19-1.385-2.564-2.506-4.095-3.33c-2.559-1.378-5.07-1.908-7.452-1.573c-2.458,0.349-4.294,1.618-5.453,3.778     c-0.547,1.014-0.837,2.108-0.856,3.246c-0.022,0.976,0.155,2.052,0.53,3.189c0.213,0.66,0.648,1.74,1.289,3.207l1.253,2.918     c0.571,1.3,0.941,2.334,1.093,3.071c0.249,1.234,0.134,2.307-0.344,3.189c-0.5,0.93-1.189,1.463-2.105,1.637     c-0.949,0.183-1.982-0.027-3.088-0.623c-0.873-0.469-1.843-1.444-2.879-2.902c-0.35-0.481-0.785-1.174-1.299-2.058l-0.279-0.482     l-4.551,2.312l0.154,0.478c0.364,1.144,1.173,2.398,2.478,3.84c1.274,1.411,2.833,2.615,4.629,3.583     c2.116,1.142,4.214,1.718,6.229,1.718c0.569,0,1.143-0.046,1.703-0.136c2.691-0.437,4.693-1.84,5.944-4.167     c0.798-1.479,1.107-3.083,0.919-4.771c-0.138-1.174-0.594-2.77-1.353-4.741l-1.798-4.635c-0.742-1.854-0.965-2.506-1.021-2.736     c-0.223-0.818-0.198-1.481,0.068-1.974C2407.697,431.656,2408.24,431.263,2408.977,431.165z" fill="#FFDB1D"/><polygon fill="#FFDB1D" points="2441.512,456.831 2444.949,453.061 2426.437,436.394 2423.025,440.185 2429.659,446.16      2412.592,465.118 2417.895,469.887 2434.957,450.929    "/><polygon fill="#FFDB1D" points="2440.707,474.417 2447.022,481.885 2450.916,478.592 2444.603,471.126 2449.843,466.693      2456.41,474.457 2460.304,471.162 2449.137,457.953 2425.763,477.716 2437.764,491.913 2441.662,488.621 2434.26,479.865    "/><path d="M2475.852,492.65c-0.192-2.431-1.383-4.857-3.541-7.214l-7.388-8.067l-22.575,20.67l4.813,5.261     l8.827-8.083l1.923,2.102l-5.131,13.051l5.961,4.725l4.51-13.986c1.142,0.587,2.609,0.801,4.348,0.644     c1.983-0.17,3.843-1.034,5.521-2.57C2475.133,497.335,2476.052,495.14,2475.852,492.65z M2467.825,494.358     c-1.05,0.962-2.161,1.364-3.408,1.233c-1.271-0.131-2.356-0.705-3.313-1.751l-1.648-1.797l6.559-6.004l1.717,1.877     c1.074,1.171,1.67,2.216,1.771,3.098C2469.623,492.106,2469.058,493.229,2467.825,494.358z" fill="#FFDB1D"/></g></g></g><g><g opacity="0.5"><radialGradient cx="2347.2854" cy="483.4905" gradientUnits="userSpaceOnUse" id="SVGID_5_" r="239.9682"><stop offset="0.2808" style="stop-color:#FFFFFF"/><stop offset="0.7833" style="stop-color:#FFFFFF;stop-opacity:0"/></radialGradient><path d="M2347.994,483.575c82.002-76.144,162.734-19.083,213.406,37.312    c-14.641-105.671-105.516-187.307-215.148-187.307c-103.098,0-189.578,72.191-211.711,168.666    C2182.403,534.047,2262.928,562.563,2347.994,483.575z" fill="url(#SVGID_5_)"/></g><radialGradient cx="2346.2502" cy="550.8293" gradientUnits="userSpaceOnUse" id="SVGID_6_" r="218.791"><stop offset="0.3218" style="stop-color:#FFFFFF;stop-opacity:0"/><stop offset="1" style="stop-color:#FFFFFF"/></radialGradient><path d="M2127.457,550.821c0,120.649,98.152,218.798,218.795,218.798   c120.65,0,218.791-98.148,218.791-218.798c0-120.638-98.141-218.78-218.791-218.78   C2225.61,332.04,2127.457,430.183,2127.457,550.821z" fill="url(#SVGID_6_)"/></g></svg>